<?xml version="1.0" encoding="UTF-8" standalone="no"?>
<!-- Created with Keyshape -->
<svg xmlns="http://www.w3.org/2000/svg" viewBox="0 0 750 180" text-rendering="geometricPrecision" shape-rendering="geometricPrecision" style="white-space: pre;">
    <style>
@keyframes a0_t { 0% { transform: translate(87.5875px,87.6px) rotate(0deg) translate(-63.9125px,-64px); animation-timing-function: cubic-bezier(0.77,0,0.175,1); } 9.0909% { transform: translate(87.5875px,87.6px) rotate(90deg) translate(-63.9125px,-64px); } 36.3636% { transform: translate(87.5875px,87.6px) rotate(90deg) translate(-63.9125px,-64px); animation-timing-function: cubic-bezier(0.77,0,0.175,1); } 45.4545% { transform: translate(87.5875px,87.6px) rotate(180deg) translate(-63.9125px,-64px); } 100% { transform: translate(87.5875px,87.6px) rotate(180deg) translate(-63.9125px,-64px); } }
@keyframes o-3_t { 0% { transform: translate(105.125px,22.7px) scale(1,1) translate(-416.2px,-46.3px); animation-timing-function: cubic-bezier(0.77,0,0.175,1); } 3.6363% { transform: translate(105.125px,22.7px) scale(0,0) translate(-416.2px,-46.3px); animation-timing-function: cubic-bezier(0.77,0,0.175,1); } 5.4545% { transform: translate(105.125px,22.7px) scale(0,0) translate(-416.2px,-46.3px); animation-timing-function: cubic-bezier(0.77,0,0.175,1); } 9.0909% { transform: translate(105.125px,22.7px) scale(1,1) translate(-416.2px,-46.3px); } 36.3636% { transform: translate(105.125px,22.7px) scale(1,1) translate(-416.2px,-46.3px); animation-timing-function: cubic-bezier(0.77,0,0.175,1); } 40% { transform: translate(105.125px,22.7px) scale(0,0) translate(-416.2px,-46.3px); animation-timing-function: cubic-bezier(0.77,0,0.175,1); } 41.8181% { transform: translate(105.125px,22.7px) scale(0,0) translate(-416.2px,-46.3px); animation-timing-function: cubic-bezier(0.77,0,0.175,1); } 45.4545% { transform: translate(105.125px,22.7px) scale(1,1) translate(-416.2px,-46.3px); } 100% { transform: translate(105.125px,22.7px) scale(1,1) translate(-416.2px,-46.3px); } }
@keyframes o-4_t { 0% { transform: translate(22.725px,105.3px) scale(1,1) translate(-333.8px,-128.9px); animation-timing-function: cubic-bezier(0.77,0,0.175,1); } 3.6363% { transform: translate(22.725px,105.3px) scale(0,0) translate(-333.8px,-128.9px); animation-timing-function: cubic-bezier(0.77,0,0.175,1); } 5.4545% { transform: translate(22.725px,105.3px) scale(0,0) translate(-333.8px,-128.9px); animation-timing-function: cubic-bezier(0.77,0,0.175,1); } 9.0909% { transform: translate(22.725px,105.3px) scale(1,1) translate(-333.8px,-128.9px); } 36.3636% { transform: translate(22.725px,105.3px) scale(1,1) translate(-333.8px,-128.9px); animation-timing-function: cubic-bezier(0.77,0,0.175,1); } 40% { transform: translate(22.725px,105.3px) scale(0,0) translate(-333.8px,-128.9px); animation-timing-function: cubic-bezier(0.77,0,0.175,1); } 41.8181% { transform: translate(22.725px,105.3px) scale(0,0) translate(-333.8px,-128.9px); animation-timing-function: cubic-bezier(0.77,0,0.175,1); } 45.4545% { transform: translate(22.725px,105.3px) scale(1,1) translate(-333.8px,-128.9px); } 100% { transform: translate(22.725px,105.3px) scale(1,1) translate(-333.8px,-128.9px); } }
@keyframes a1_t { 0% { transform: translate(87.5875px,87.6px) rotate(0deg) translate(-63.9125px,-64px); animation-timing-function: cubic-bezier(0.77,0,0.175,1); } 9.0909% { transform: translate(87.5875px,87.6px) rotate(90deg) translate(-63.9125px,-64px); } 36.3636% { transform: translate(87.5875px,87.6px) rotate(90deg) translate(-63.9125px,-64px); animation-timing-function: cubic-bezier(0.77,0,0.175,1); } 45.4545% { transform: translate(87.5875px,87.6px) rotate(180deg) translate(-63.9125px,-64px); } 100% { transform: translate(87.5875px,87.6px) rotate(180deg) translate(-63.9125px,-64px); } }
@keyframes o-2_t { 0% { transform: translate(105.125px,22.7px) scale(1,1) translate(-416.2px,-46.3px); animation-timing-function: cubic-bezier(0.77,0,0.175,1); } 3.6363% { transform: translate(105.125px,22.7px) scale(0,0) translate(-416.2px,-46.3px); animation-timing-function: cubic-bezier(0.77,0,0.175,1); } 5.4545% { transform: translate(105.125px,22.7px) scale(0,0) translate(-416.2px,-46.3px); animation-timing-function: cubic-bezier(0.77,0,0.175,1); } 9.0909% { transform: translate(105.125px,22.7px) scale(1,1) translate(-416.2px,-46.3px); } 36.3636% { transform: translate(105.125px,22.7px) scale(1,1) translate(-416.2px,-46.3px); animation-timing-function: cubic-bezier(0.77,0,0.175,1); } 40% { transform: translate(105.125px,22.7px) scale(0,0) translate(-416.2px,-46.3px); animation-timing-function: cubic-bezier(0.77,0,0.175,1); } 41.8181% { transform: translate(105.125px,22.7px) scale(0,0) translate(-416.2px,-46.3px); animation-timing-function: cubic-bezier(0.77,0,0.175,1); } 45.4545% { transform: translate(105.125px,22.7px) scale(1,1) translate(-416.2px,-46.3px); } 100% { transform: translate(105.125px,22.7px) scale(1,1) translate(-416.2px,-46.3px); } }
@keyframes o-1_t { 0% { transform: translate(22.725px,105.3px) scale(1,1) translate(-333.8px,-128.9px); animation-timing-function: cubic-bezier(0.77,0,0.175,1); } 3.6363% { transform: translate(22.725px,105.3px) scale(0,0) translate(-333.8px,-128.9px); animation-timing-function: cubic-bezier(0.77,0,0.175,1); } 5.4545% { transform: translate(22.725px,105.3px) scale(0,0) translate(-333.8px,-128.9px); animation-timing-function: cubic-bezier(0.77,0,0.175,1); } 9.0909% { transform: translate(22.725px,105.3px) scale(1,1) translate(-333.8px,-128.9px); } 36.3636% { transform: translate(22.725px,105.3px) scale(1,1) translate(-333.8px,-128.9px); animation-timing-function: cubic-bezier(0.77,0,0.175,1); } 40% { transform: translate(22.725px,105.3px) scale(0,0) translate(-333.8px,-128.9px); animation-timing-function: cubic-bezier(0.77,0,0.175,1); } 41.8181% { transform: translate(22.725px,105.3px) scale(0,0) translate(-333.8px,-128.9px); animation-timing-function: cubic-bezier(0.77,0,0.175,1); } 45.4545% { transform: translate(22.725px,105.3px) scale(1,1) translate(-333.8px,-128.9px); } 100% { transform: translate(22.725px,105.3px) scale(1,1) translate(-333.8px,-128.9px); } }
    </style>
    <g id="white-outline" display="none" transform="translate(378,90) translate(-375,-61.8)">
        <g transform="translate(615.35,61.65) translate(-618.35,-65.15)">
            <path id="t_2_-3" class="st0" d="M691,7.8L717.5,3.5L717.5,31L749.3,31L749.3,53L717.5,53L717.5,85.8C717.5,91.4,718.5,95.8,720.4,99.1C722.4,102.4,726.3,104.1,732.2,104.1C735,104.1,738,103.8,741,103.3C744,102.8,746.8,102,749.3,101.1L753,121.7C749.8,123,746.3,124.1,742.3,125.1C738.4,126,733.6,126.5,727.9,126.5C720.7,126.5,714.7,125.5,710,123.6C705.3,121.6,701.5,118.9,698.6,115.4C695.8,111.9,693.8,107.7,692.7,102.7C691.6,97.7,691,92.2,691,86.2L691,7.8Z" stroke-width="6" stroke="#FFFFFF" stroke-miterlimit="10" fill="none" transform="translate(722,65) translate(-722,-65)"/>
            <path id="e_2_-3" class="st0" d="M583.8,78.4C583.8,70.1,585.1,62.9,587.6,56.7C590.1,50.5,593.5,45.3,597.6,41.2C601.7,37.1,606.5,33.9,611.9,31.8C617.3,29.7,622.8,28.6,628.5,28.6C641.8,28.6,652.2,32.7,659.9,40.8C667.6,48.9,671.4,60.8,671.4,76.6C671.4,78.1,671.3,79.8,671.2,81.7C671.1,83.5,671,85.2,670.8,86.6L610.8,86.6C611.4,92,613.9,96.4,618.4,99.6C622.9,102.8,628.9,104.4,636.5,104.4C641.4,104.4,646.1,104,650.8,103.1C655.5,102.2,659.3,101.1,662.2,99.8L666,121C664.6,121.7,662.7,122.4,660.3,123.1C657.9,123.8,655.3,124.4,652.4,125C649.5,125.5,646.4,126,643.1,126.3C639.8,126.7,636.5,126.8,633.2,126.8C624.8,126.8,617.5,125.6,611.3,123.1C605.1,120.6,599.9,117.2,595.9,112.9C591.8,108.6,588.8,103.5,586.8,97.5C584.8,91.7,583.8,85.3,583.8,78.4ZM646,68.3C645.9,66.1,645.5,63.9,644.8,61.7C644.1,59.6,643.1,57.7,641.8,56C640.4,54.3,638.7,53,636.7,51.9C634.6,50.8,632.1,50.3,629,50.3C626,50.3,623.5,50.8,621.4,51.8C619.3,52.8,617.5,54.1,616.1,55.8C614.7,57.5,613.6,59.4,612.8,61.6C612,63.8,611.5,66,611.1,68.3L646,68.3Z" stroke-width="6" stroke="#FFFFFF" stroke-miterlimit="10" fill="none" transform="translate(627.6,77.7) translate(-627.6,-77.7)"/>
            <path id="n_2_-3" class="st0" d="M483.7,34.2C488.2,32.9,494,31.7,501.1,30.6C508.2,29.5,515.7,28.9,523.5,28.9C531.4,28.9,538,29.9,543.3,32C548.6,34.1,552.7,37,555.8,40.8C558.9,44.6,561.1,49.1,562.4,54.3C563.7,59.5,564.4,65.3,564.4,71.7L564.4,124.4L537.9,124.4L537.9,74.9C537.9,66.4,536.8,60.3,534.5,56.8C532.3,53.2,528,51.5,521.9,51.5C520,51.5,518,51.6,515.9,51.8C513.8,52,511.9,52.2,510.2,52.4L510.2,124.5L483.7,124.5L483.7,34.2Z" stroke-width="6" stroke="#FFFFFF" stroke-miterlimit="10" fill="none" transform="translate(524.05,76.7) translate(-524.05,-76.7)"/>
        </g>
        <g transform="translate(134.65,61.8) translate(-137.65,-65.3)">
            <path id="t_1_-3" class="st0" d="M210.3,7.8L236.8,3.5L236.8,31L268.6,31L268.6,53L236.8,53L236.8,85.8C236.8,91.4,237.8,95.8,239.7,99.1C241.7,102.4,245.6,104.1,251.5,104.1C254.3,104.1,257.3,103.8,260.3,103.3C263.3,102.8,266.1,102,268.6,101.1L272.3,121.7C269.1,123,265.6,124.1,261.6,125.1C257.7,126,252.9,126.5,247.2,126.5C240,126.5,234,125.5,229.3,123.6C224.6,121.6,220.8,118.9,217.9,115.4C215.1,111.9,213.1,107.7,212,102.7C210.9,97.7,210.3,92.2,210.3,86.2L210.3,7.8Z" stroke-width="6" stroke="#FFFFFF" stroke-miterlimit="10" fill="none" transform="translate(241.3,65) translate(-241.3,-65)"/>
            <path id="e_1_-3" class="st0" d="M103.1,78.4C103.1,70.1,104.4,62.9,106.9,56.7C109.4,50.5,112.8,45.3,116.9,41.2C121,37.1,125.8,33.9,131.2,31.8C136.6,29.7,142.1,28.6,147.8,28.6C161.1,28.6,171.5,32.7,179.2,40.8C186.9,48.9,190.7,60.8,190.7,76.6C190.7,78.1,190.6,79.8,190.5,81.7C190.4,83.5,190.3,85.2,190.1,86.6L130.1,86.6C130.7,92,133.2,96.4,137.7,99.6C142.2,102.8,148.2,104.4,155.8,104.4C160.7,104.4,165.4,104,170.1,103.1C174.8,102.2,178.6,101.1,181.5,99.8L185.1,121.3C183.7,122,181.8,122.7,179.4,123.4C177,124.1,174.4,124.7,171.5,125.3C168.6,125.8,165.5,126.3,162.2,126.6C158.9,127,155.6,127.1,152.3,127.1C143.9,127.1,136.6,125.9,130.4,123.4C124.2,120.9,119,117.5,115,113.2C110.9,108.9,107.9,103.8,105.9,97.8C104.1,91.7,103.1,85.3,103.1,78.4ZM165.3,68.3C165.2,66.1,164.8,63.9,164.1,61.7C163.4,59.6,162.4,57.7,161.1,56C159.7,54.3,158,53,156,51.9C153.9,50.8,151.4,50.3,148.3,50.3C145.3,50.3,142.8,50.8,140.7,51.8C138.6,52.8,136.8,54.1,135.4,55.8C134,57.5,132.9,59.4,132.1,61.6C131.3,63.8,130.8,66,130.4,68.3L165.3,68.3Z" stroke-width="6" stroke="#FFFFFF" stroke-miterlimit="10" fill="none" transform="translate(146.9,77.85) translate(-146.9,-77.85)"/>
            <path id="n_1_-3" class="st0" d="M3,34.2C7.5,32.9,13.3,31.7,20.4,30.6C27.5,29.5,35,28.9,42.8,28.9C50.7,28.9,57.3,29.9,62.6,32C67.9,34.1,72,37,75.1,40.8C78.2,44.6,80.4,49.1,81.7,54.3C83,59.5,83.7,65.3,83.7,71.7L83.7,124.4L57.1,124.4L57.1,74.9C57.1,66.4,56,60.3,53.7,56.8C51.5,53.2,47.2,51.5,41.1,51.5C39.2,51.5,37.2,51.6,35.1,51.8C33,52,31.1,52.2,29.4,52.4L29.4,124.5L3,124.5L3,34.2Z" stroke-width="6" stroke="#FFFFFF" stroke-miterlimit="10" fill="none" transform="translate(43.35,76.7) translate(-43.35,-76.7)"/>
        </g>
    </g>
    <g id="white" transform="translate(375,90.1) translate(-375,-61.8)">
        <g transform="translate(615.35,61.8) translate(-615.35,-87.7)">
            <path id="t_2_-2" d="M688,30.2L714.5,25.9L714.5,53.4L746.3,53.4L746.3,75.4L714.5,75.4L714.5,108.2C714.5,113.8,715.5,118.2,717.4,121.5C719.4,124.8,723.3,126.5,729.2,126.5C732,126.5,735,126.2,738,125.7C741,125.2,743.8,124.4,746.3,123.5L750,144.1C746.8,145.4,743.3,146.5,739.3,147.5C735.4,148.4,730.6,148.9,724.9,148.9C717.7,148.9,711.7,147.9,707,146C702.3,144,698.5,141.3,695.6,137.8C692.8,134.3,690.8,130.1,689.7,125.1C688.6,120.1,688,114.6,688,108.6L688,30.2Z" fill="#ffffff" transform="translate(719,87.4) translate(-719,-87.4)"/>
            <path id="e_2_-2" d="M580.8,100.8C580.8,92.5,582.1,85.3,584.6,79.1C587.1,72.9,590.5,67.7,594.6,63.6C598.7,59.5,603.5,56.3,608.9,54.2C614.3,52.1,619.8,51,625.5,51C638.8,51,649.2,55.1,656.9,63.2C664.6,71.3,668.4,83.2,668.4,99C668.4,100.5,668.3,102.2,668.2,104.1C668.1,105.9,668,107.6,667.8,109L607.8,109C608.4,114.4,610.9,118.8,615.4,122C619.9,125.2,625.9,126.8,633.5,126.8C638.4,126.8,643.1,126.4,647.8,125.5C652.5,124.6,656.3,123.5,659.2,122.2L662.8,143.7C661.4,144.4,659.5,145.1,657.1,145.8C654.7,146.5,652.1,147.1,649.2,147.7C646.3,148.2,643.2,148.7,639.9,149C636.6,149.4,633.3,149.5,630,149.5C621.6,149.5,614.3,148.3,608.1,145.8C601.9,143.3,596.7,139.9,592.7,135.6C588.6,131.3,585.6,126.2,583.6,120.2C581.8,114.1,580.8,107.7,580.8,100.8ZM643,90.7C642.9,88.5,642.5,86.3,641.8,84.1C641.1,82,640.1,80.1,638.8,78.4C637.4,76.7,635.7,75.4,633.7,74.3C631.6,73.2,629.1,72.7,626,72.7C623,72.7,620.5,73.2,618.4,74.2C616.3,75.2,614.5,76.5,613.1,78.2C611.7,79.9,610.6,81.8,609.8,84C609,86.2,608.5,88.4,608.1,90.7L643,90.7Z" fill="#ffffff" transform="translate(624.6,100.25) translate(-624.6,-100.25)"/>
            <path id="n_2_-2" d="M480.7,56.6C485.2,55.3,491,54.1,498.1,53C505.2,51.9,512.7,51.3,520.5,51.3C528.4,51.3,535,52.3,540.3,54.4C545.6,56.5,549.7,59.4,552.8,63.2C555.9,67,558.1,71.5,559.4,76.7C560.7,81.9,561.4,87.7,561.4,94.1L561.4,146.8L534.9,146.8L534.9,97.3C534.9,88.8,533.8,82.7,531.5,79.2C529.3,75.6,525,73.9,518.9,73.9C517,73.9,515,74,512.9,74.2C510.8,74.4,508.9,74.6,507.2,74.8L507.2,146.9L480.7,146.9L480.7,56.6Z" fill="#ffffff" transform="translate(521.05,99.1) translate(-521.05,-99.1)"/>
        </g>
        <g transform="translate(134.65,61.8) translate(-134.65,-87.7)">
            <path id="t_1_-2" d="M207.3,30.2L233.8,25.9L233.8,53.4L265.6,53.4L265.6,75.4L233.8,75.4L233.8,108.2C233.8,113.8,234.8,118.2,236.7,121.5C238.7,124.8,242.6,126.5,248.5,126.5C251.3,126.5,254.3,126.2,257.3,125.7C260.3,125.2,263.1,124.4,265.6,123.5L269.3,144.1C266.1,145.4,262.6,146.5,258.6,147.5C254.7,148.4,249.9,148.9,244.2,148.9C237,148.9,231,147.9,226.3,146C221.6,144,217.8,141.3,214.9,137.8C212.1,134.3,210.1,130.1,209,125.1C207.9,120.1,207.3,114.6,207.3,108.6L207.3,30.2Z" fill="#ffffff" transform="translate(238.3,87.4) translate(-238.3,-87.4)"/>
            <path id="e_1_-2" d="M100.1,100.8C100.1,92.5,101.4,85.3,103.9,79.1C106.4,72.9,109.8,67.7,113.9,63.6C118,59.5,122.8,56.3,128.2,54.2C133.6,52.1,139.1,51,144.8,51C158.1,51,168.5,55.1,176.2,63.2C183.9,71.3,187.7,83.2,187.7,99C187.7,100.5,187.6,102.2,187.5,104.1C187.4,105.9,187.3,107.6,187.1,109L127.1,109C127.7,114.4,130.2,118.8,134.7,122C139.2,125.2,145.2,126.8,152.8,126.8C157.7,126.8,162.4,126.4,167.1,125.5C171.8,124.6,175.6,123.5,178.5,122.2L182.1,143.7C180.7,144.4,178.8,145.1,176.4,145.8C174,146.5,171.4,147.1,168.5,147.7C165.6,148.2,162.5,148.7,159.2,149C155.9,149.4,152.6,149.5,149.3,149.5C140.9,149.5,133.6,148.3,127.4,145.8C121.2,143.3,116,139.9,112,135.6C107.9,131.3,104.9,126.2,102.9,120.2C101.1,114.1,100.1,107.7,100.1,100.8ZM162.3,90.7C162.2,88.5,161.8,86.3,161.1,84.1C160.4,82,159.4,80.1,158.1,78.4C156.7,76.7,155,75.4,153,74.3C150.9,73.2,148.4,72.7,145.3,72.7C142.3,72.7,139.8,73.2,137.7,74.2C135.6,75.2,133.8,76.5,132.4,78.2C131,79.9,129.9,81.8,129.1,84C128.3,86.2,127.8,88.4,127.4,90.7L162.3,90.7Z" fill="#ffffff" transform="translate(143.9,100.25) translate(-143.9,-100.25)"/>
            <path id="n_1_-2" d="M0,56.6C4.5,55.3,10.3,54.1,17.4,53C24.5,51.9,32,51.3,39.8,51.3C47.7,51.3,54.3,52.3,59.6,54.4C64.9,56.5,69,59.4,72.1,63.2C75.2,67,77.4,71.5,78.7,76.7C80,81.9,80.7,87.7,80.7,94.1L80.7,146.8L54.1,146.8L54.1,97.3C54.1,88.8,53,82.7,50.7,79.2C48.5,75.6,44.2,73.9,38.1,73.9C36.2,73.9,34.2,74,32.1,74.2C30,74.4,28.1,74.6,26.4,74.8L26.4,146.9L0,146.9L0,56.6Z" fill="#ffffff" transform="translate(40.35,99.1) translate(-40.35,-99.1)"/>
        </g>
    </g>
    <g id="black" display="none" transform="translate(375,90.1) translate(-375,-61.8)">
        <g transform="translate(615.35,61.8) translate(-615.35,-87.7)">
            <path id="t_2_" d="M688,30.2L714.5,25.9L714.5,53.4L746.3,53.4L746.3,75.4L714.5,75.4L714.5,108.2C714.5,113.8,715.5,118.2,717.4,121.5C719.4,124.8,723.3,126.5,729.2,126.5C732,126.5,735,126.2,738,125.7C741,125.2,743.8,124.4,746.3,123.5L750,144.1C746.8,145.4,743.3,146.5,739.3,147.5C735.4,148.4,730.6,148.9,724.9,148.9C717.7,148.9,711.7,147.9,707,146C702.3,144,698.5,141.3,695.6,137.8C692.8,134.3,690.8,130.1,689.7,125.1C688.6,120.1,688,114.6,688,108.6L688,30.2Z" transform="translate(719,87.4) translate(-719,-87.4)"/>
            <path id="e_2_" d="M580.8,100.8C580.8,92.5,582.1,85.3,584.6,79.1C587.1,72.9,590.5,67.7,594.6,63.6C598.7,59.5,603.5,56.3,608.9,54.2C614.3,52.1,619.8,51,625.5,51C638.8,51,649.2,55.1,656.9,63.2C664.6,71.3,668.4,83.2,668.4,99C668.4,100.5,668.3,102.2,668.2,104.1C668.1,105.9,668,107.6,667.8,109L607.8,109C608.4,114.4,610.9,118.8,615.4,122C619.9,125.2,625.9,126.8,633.5,126.8C638.4,126.8,643.1,126.4,647.8,125.5C652.5,124.6,656.3,123.5,659.2,122.2L662.8,143.7C661.4,144.4,659.5,145.1,657.1,145.8C654.7,146.5,652.1,147.1,649.2,147.7C646.3,148.2,643.2,148.7,639.9,149C636.6,149.4,633.3,149.5,630,149.5C621.6,149.5,614.3,148.3,608.1,145.8C601.9,143.3,596.7,139.9,592.7,135.6C588.6,131.3,585.6,126.2,583.6,120.2C581.8,114.1,580.8,107.7,580.8,100.8ZM643,90.7C642.9,88.5,642.5,86.3,641.8,84.1C641.1,82,640.1,80.1,638.8,78.4C637.4,76.7,635.7,75.4,633.7,74.3C631.6,73.2,629.1,72.7,626,72.7C623,72.7,620.5,73.2,618.4,74.2C616.3,75.2,614.5,76.5,613.1,78.2C611.7,79.9,610.6,81.8,609.8,84C609,86.2,608.5,88.4,608.1,90.7L643,90.7Z" transform="translate(624.6,100.25) translate(-624.6,-100.25)"/>
            <path id="n_2_" d="M480.7,56.6C485.2,55.3,491,54.1,498.1,53C505.2,51.9,512.7,51.3,520.5,51.3C528.4,51.3,535,52.3,540.3,54.4C545.6,56.5,549.7,59.4,552.8,63.2C555.9,67,558.1,71.5,559.4,76.7C560.7,81.9,561.4,87.7,561.4,94.1L561.4,146.8L534.9,146.8L534.9,97.3C534.9,88.8,533.8,82.7,531.5,79.2C529.3,75.6,525,73.9,518.9,73.9C517,73.9,515,74,512.9,74.2C510.8,74.4,508.9,74.6,507.2,74.8L507.2,146.9L480.7,146.9L480.7,56.6Z" transform="translate(521.05,99.1) translate(-521.05,-99.1)"/>
        </g>
        <g transform="translate(134.65,61.8) translate(-134.65,-87.7)">
            <path id="t_1_" d="M207.3,30.2L233.8,25.9L233.8,53.4L265.6,53.4L265.6,75.4L233.8,75.4L233.8,108.2C233.8,113.8,234.8,118.2,236.7,121.5C238.7,124.8,242.6,126.5,248.5,126.5C251.3,126.5,254.3,126.2,257.3,125.7C260.3,125.2,263.1,124.4,265.6,123.5L269.3,144.1C266.1,145.4,262.6,146.5,258.6,147.5C254.7,148.4,249.9,148.9,244.2,148.9C237,148.9,231,147.9,226.3,146C221.6,144,217.8,141.3,214.9,137.8C212.1,134.3,210.1,130.1,209,125.1C207.9,120.1,207.3,114.6,207.3,108.6L207.3,30.2Z" transform="translate(238.3,87.4) translate(-238.3,-87.4)"/>
            <path id="e_1_" d="M100.1,100.8C100.1,92.5,101.4,85.3,103.9,79.1C106.4,72.9,109.8,67.7,113.9,63.6C118,59.5,122.8,56.3,128.2,54.2C133.6,52.1,139.1,51,144.8,51C158.1,51,168.5,55.1,176.2,63.2C183.9,71.3,187.7,83.2,187.7,99C187.7,100.5,187.6,102.2,187.5,104.1C187.4,105.9,187.3,107.6,187.1,109L127.1,109C127.7,114.4,130.2,118.8,134.7,122C139.2,125.2,145.2,126.8,152.8,126.8C157.7,126.8,162.4,126.4,167.1,125.5C171.8,124.6,175.6,123.5,178.5,122.2L182.1,143.7C180.7,144.4,178.8,145.1,176.4,145.8C174,146.5,171.4,147.1,168.5,147.7C165.6,148.2,162.5,148.7,159.2,149C155.9,149.4,152.6,149.5,149.3,149.5C140.9,149.5,133.6,148.3,127.4,145.8C121.2,143.3,116,139.9,112,135.6C107.9,131.3,104.9,126.2,102.9,120.2C101.1,114.1,100.1,107.7,100.1,100.8ZM162.3,90.7C162.2,88.5,161.8,86.3,161.1,84.1C160.4,82,159.4,80.1,158.1,78.4C156.7,76.7,155,75.4,153,74.3C150.9,73.2,148.4,72.7,145.3,72.7C142.3,72.7,139.8,73.2,137.7,74.2C135.6,75.2,133.8,76.5,132.4,78.2C131,79.9,129.9,81.8,129.1,84C128.3,86.2,127.8,88.4,127.4,90.7L162.3,90.7Z" transform="translate(143.9,100.25) translate(-143.9,-100.25)"/>
            <path id="n_1_" d="M0,56.6C4.5,55.3,10.3,54.1,17.4,53C24.5,51.9,32,51.3,39.8,51.3C47.7,51.3,54.3,52.3,59.6,54.4C64.9,56.5,69,59.4,72.1,63.2C75.2,67,77.4,71.5,78.7,76.7C80,81.9,80.7,87.7,80.7,94.1L80.7,146.8L54.1,146.8L54.1,97.3C54.1,88.8,53,82.7,50.7,79.2C48.5,75.6,44.2,73.9,38.1,73.9C36.2,73.9,34.2,74,32.1,74.2C30,74.4,28.1,74.6,26.4,74.8L26.4,146.9L0,146.9L0,56.6Z" transform="translate(40.35,99.1) translate(-40.35,-99.1)"/>
        </g>
    </g>
    <g id="logo-outline" transform="translate(375,90) translate(-87.6,-87.6)">
        <path class="st0" d="M146.361,176.5L34.6393,176.5C18.0479,176.5,4.5,162.952,4.5,146.361L4.5,34.6393C4.5,18.0479,18.0479,4.5,34.6393,4.5L146.361,4.5C162.952,4.5,176.5,18.0479,176.5,34.6393L176.5,146.361C176.5,162.952,162.952,176.5,146.361,176.5Z" stroke-width="9" stroke="#FFFFFF" stroke-miterlimit="10" fill="none" transform="translate(87.6,89.2) translate(-92.1,-92.1)"/>
        <g transform="translate(87.5875,87.6) translate(-63.9125,-64)" style="animation: 11s linear infinite both a0_t;">
            <path id="o-3" class="st1" d="M416.2,69C428.7,69,438.9,58.8,438.9,46.3C438.9,33.8,428.7,23.6,416.2,23.6C403.7,23.6,393.5,33.8,393.5,46.3C393.5,58.8,403.7,69,416.2,69ZM416.2,33.2C423.4,33.2,429.3,39.1,429.3,46.3C429.3,53.5,423.4,59.4,416.2,59.4C409,59.4,403.1,53.5,403.1,46.3C403.1,39.1,409,33.2,416.2,33.2Z" fill="#FFFFFF" transform="translate(105.125,22.7) translate(-416.2,-46.3)" style="animation: 11s linear infinite both o-3_t;"/>
            <path id="center-2" class="st1" d="M349.2,30.2C345.2,26.2,339.4,23.9,333.4,23.9C327.4,23.9,321.6,26.2,317.6,30.2C308.9,38.9,308.9,53.1,317.6,61.8L400.8,145C405,149.2,410.6,151.5,416.6,151.5C422.6,151.5,428.2,149.2,432.4,145C436.6,140.8,438.9,135.2,438.9,129.2C438.9,123.2,436.6,117.6,432.4,113.4L349.2,30.2ZM429.4,129.2C429.4,132.6,428.1,135.9,425.7,138.3C423.4,140.6,420.1,141.9,416.6,141.9C413.1,141.9,409.8,140.6,407.5,138.3L324.3,55.1C319.3,50.1,319.3,42,324.3,37C326.7,34.6,329.9,33.3,333.4,33.3C336.9,33.3,340.1,34.6,342.5,37L425.7,120.2C428.1,122.5,429.4,125.7,429.4,129.2Z" fill="#FFFFFF" transform="translate(63.9125,64.1) translate(-374.987,-87.7)"/>
            <path id="o-4" class="st1" d="M333.8,106.2C321.3,106.2,311.1,116.4,311.1,128.9C311.1,141.4,321.3,151.6,333.8,151.6C346.3,151.6,356.5,141.4,356.5,128.9C356.4,116.3,346.3,106.2,333.8,106.2ZM346.9,128.8C346.9,136,341,141.9,333.8,141.9C326.6,141.9,320.7,136,320.7,128.8C320.7,121.6,326.6,115.7,333.8,115.7C341,115.7,346.9,121.6,346.9,128.8Z" fill="#FFFFFF" transform="translate(22.725,105.3) translate(-333.8,-128.9)" style="animation: 11s linear infinite both o-4_t;"/>
        </g>
    </g>
    <g id="logo" display="none" transform="translate(375,90) translate(-87.6,-87.6)">
        <path class="st0" d="M431.9,175.2L318.1,175.2C301.2,175.2,287.4,161.4,287.4,144.5L287.4,30.7C287.4,13.8,301.2,0,318.1,0L431.9,0C448.8,0,462.6,13.8,462.6,30.7L462.6,144.5C462.6,161.4,448.8,175.2,431.9,175.2Z" fill="#711FFF" transform="translate(87.6,87.6) translate(-375,-87.6)"/>
        <g transform="translate(87.5875,87.6) translate(-63.9125,-64)" style="animation: 11s linear infinite both a1_t;">
            <path id="o-2" class="st1" d="M416.2,69C428.7,69,438.9,58.8,438.9,46.3C438.9,33.8,428.7,23.6,416.2,23.6C403.7,23.6,393.5,33.8,393.5,46.3C393.5,58.8,403.7,69,416.2,69ZM416.2,33.2C423.4,33.2,429.3,39.1,429.3,46.3C429.3,53.5,423.4,59.4,416.2,59.4C409,59.4,403.1,53.5,403.1,46.3C403.1,39.1,409,33.2,416.2,33.2Z" fill="#FFFFFF" transform="translate(105.125,22.7) translate(-416.2,-46.3)" style="animation: 11s linear infinite both o-2_t;"/>
            <path id="center" class="st1" d="M349.2,30.2C345.2,26.2,339.4,23.9,333.4,23.9C327.4,23.9,321.6,26.2,317.6,30.2C308.9,38.9,308.9,53.1,317.6,61.8L400.8,145C405,149.2,410.6,151.5,416.6,151.5C422.6,151.5,428.2,149.2,432.4,145C436.6,140.8,438.9,135.2,438.9,129.2C438.9,123.2,436.6,117.6,432.4,113.4L349.2,30.2ZM429.4,129.2C429.4,132.6,428.1,135.9,425.7,138.3C423.4,140.6,420.1,141.9,416.6,141.9C413.1,141.9,409.8,140.6,407.5,138.3L324.3,55.1C319.3,50.1,319.3,42,324.3,37C326.7,34.6,329.9,33.3,333.4,33.3C336.9,33.3,340.1,34.6,342.5,37L425.7,120.2C428.1,122.5,429.4,125.7,429.4,129.2Z" fill="#FFFFFF" transform="translate(63.9125,64.1) translate(-374.987,-87.7)"/>
            <path id="o-1" class="st1" d="M333.8,106.2C321.3,106.2,311.1,116.4,311.1,128.9C311.1,141.4,321.3,151.6,333.8,151.6C346.3,151.6,356.5,141.4,356.5,128.9C356.4,116.3,346.3,106.2,333.8,106.2ZM346.9,128.8C346.9,136,341,141.9,333.8,141.9C326.6,141.9,320.7,136,320.7,128.8C320.7,121.6,326.6,115.7,333.8,115.7C341,115.7,346.9,121.6,346.9,128.8Z" fill="#FFFFFF" transform="translate(22.725,105.3) translate(-333.8,-128.9)" style="animation: 11s linear infinite both o-1_t;"/>
        </g>
    </g>
</svg>
