<?xml version="1.0" encoding="UTF-8"?><svg id="Layer_2" xmlns="http://www.w3.org/2000/svg" viewBox="0 0 108 108"><defs><style>.cls-1{fill:#711fff;}</style></defs><g id="Net_Net_AI_Active"><path class="cls-1" d="M108,104.4V3.6c0-1.99-1.15-3.6-2.57-3.6H2.57C1.15,0,0,1.61,0,3.6v100.8c0,1.99,1.15,3.6,2.57,3.6h102.86c1.42,0,2.57-1.61,2.57-3.6ZM11.52,60.17l-4.32,4.12v-20.57l4.32,4.12c.68.65,1.75,1.03,2.88,1.03h7.2v10.29h-7.2c-1.13,0-2.2.38-2.88,1.03ZM28.8,30.86h50.4v46.29H28.8V30.86ZM50.4,25.71V5.14h7.2v20.57h-7.2ZM64.8,25.71V5.14h14.4v6.65l-6.15,4.39c-.68.48-1.05,1.14-1.05,1.82v7.71h-7.2ZM43.2,5.14v20.57h-7.2v-7.71c0-.68-.38-1.34-1.05-1.82l-6.15-4.39v-6.65h14.4ZM96.48,47.83l4.32-4.12v20.57l-4.32-4.12c-.68-.65-1.75-1.03-2.88-1.03h-7.2v-10.29h7.2c1.13,0,2.2-.38,2.88-1.03ZM57.6,82.29v20.57h-7.2v-20.57h7.2ZM64.8,102.86v-20.57h7.2v7.71c0,.68.38,1.34,1.05,1.82l6.15,4.39v6.65h-14.4ZM43.2,82.29v20.57h-14.4v-6.65l6.15-4.39c.68-.48,1.05-1.14,1.05-1.82v-7.71h7.2ZM86.4,102.86v-7.71c0-.68-.38-1.34-1.05-1.82l-6.15-4.39v-6.65h3.6c1.99,0,3.6-1.15,3.6-2.57v-15.43h5.4l9,8.57v30h-14.4ZM100.8,35.14l-9,8.57h-5.4v-15.43c0-1.42-1.61-2.57-3.6-2.57h-3.6v-6.65l6.15-4.39c.67-.48,1.05-1.14,1.05-1.82v-7.71h14.4v30ZM21.6,5.14v7.71c0,.68.38,1.34,1.05,1.82l6.15,4.39v6.65h-3.6c-1.99,0-3.6,1.15-3.6,2.57v15.43h-5.4l-9-8.57V5.14h14.4ZM7.2,72.86l9-8.57h5.4v15.43c0,1.42,1.61,2.57,3.6,2.57h3.6v6.65l-6.15,4.39c-.67.48-1.05,1.14-1.05,1.82v7.71H7.2v-30Z"/><path class="cls-1" d="M32.91,69.92l13.32-32.56c.13-.29.43-.53.72-.53h.43c.3,0,.6.24.72.53l13.32,32.56c.26.63-.08,1.26-.72,1.26h-4.73c-.77,0-1.11-.29-1.49-1.21l-1.53-3.82h-11.58l-1.53,3.87c-.21.58-.68,1.16-1.53,1.16h-4.68c-.64,0-.98-.63-.72-1.26ZM50.4,59.56l-3.24-7.98h-.04l-3.19,7.98h6.47Z"/><path class="cls-1" d="M64.95,52.11c0-.28.36-.53.77-.53h4.86c.4,0,.77.25.77.53v18.53c0,.28-.36.53-.77.53h-4.86c-.4,0-.77-.25-.77-.53v-18.53Z"/><circle class="cls-1" cx="68.15" cy="41.61" r="4.78"/></g></svg>