<?xml version="1.0" encoding="UTF-8"?><svg id="Layer_2" xmlns="http://www.w3.org/2000/svg" viewBox="0 0 108 108"><defs><style>.cls-1{fill:#711fff;}.cls-2{fill:#404041;}</style></defs><g id="Net_Net_AI_Idle"><path class="cls-2" d="M0,3.6v100.8c0,1.99,1.15,3.6,2.57,3.6h102.86c1.42,0,2.57-1.61,2.57-3.6V3.6c0-1.99-1.15-3.6-2.57-3.6H2.57C1.15,0,0,1.61,0,3.6ZM47.83,11.52l-4.12-4.32h20.57l-4.12,4.32c-.65.68-1.03,1.75-1.03,2.88v7.2h-10.29v-7.2c0-1.13-.38-2.2-1.03-2.88ZM77.14,28.8v50.4H30.86V28.8h46.29ZM82.29,50.4h20.57v7.2h-20.57v-7.2ZM82.29,64.8h20.57v14.4h-6.65l-4.39-6.15c-.48-.68-1.14-1.05-1.82-1.05h-7.71v-7.2ZM102.86,43.2h-20.57v-7.2h7.71c.68,0,1.34-.38,1.82-1.05l4.39-6.15h6.65v14.4ZM60.17,96.48l4.12,4.32h-20.57l4.12-4.32c.65-.68,1.03-1.75,1.03-2.88v-7.2h10.29v7.2c0,1.13.38,2.2,1.03,2.88ZM25.71,57.6H5.14v-7.2h20.57v7.2ZM5.14,64.8h20.57v7.2h-7.71c-.68,0-1.34.38-1.82,1.05l-4.39,6.15h-6.65v-14.4ZM25.71,43.2H5.14v-14.4h6.65l4.39,6.15c.48.68,1.14,1.05,1.82,1.05h7.71v7.2ZM5.14,86.4h7.71c.68,0,1.34-.38,1.82-1.05l4.39-6.15h6.65v3.6c0,1.99,1.15,3.6,2.57,3.6h15.43v5.4l-8.57,9H5.14v-14.4ZM72.86,100.8l-8.57-9v-5.4h15.43c1.42,0,2.57-1.61,2.57-3.6v-3.6h6.65l4.39,6.15c.48.67,1.14,1.05,1.82,1.05h7.71v14.4h-30ZM102.86,21.6h-7.71c-.68,0-1.34.38-1.82,1.05l-4.39,6.15h-6.65v-3.6c0-1.99-1.15-3.6-2.57-3.6h-15.43v-5.4l8.57-9h30v14.4ZM35.14,7.2l8.57,9v5.4h-15.43c-1.42,0-2.57,1.61-2.57,3.6v3.6h-6.65l-4.39-6.15c-.48-.67-1.14-1.05-1.82-1.05h-7.71V7.2h30Z"/><path class="cls-2" d="M32.91,69.92l13.32-32.56c.13-.29.43-.53.72-.53h.43c.3,0,.6.24.72.53l13.32,32.56c.26.63-.08,1.26-.72,1.26h-4.73c-.77,0-1.11-.29-1.49-1.21l-1.53-3.82h-11.58l-1.53,3.87c-.21.58-.68,1.16-1.53,1.16h-4.68c-.64,0-.98-.63-.72-1.26ZM50.4,59.56l-3.24-7.98h-.04l-3.19,7.98h6.47Z"/><path class="cls-2" d="M64.95,52.11c0-.28.36-.53.77-.53h4.86c.4,0,.77.25.77.53v18.53c0,.28-.36.53-.77.53h-4.86c-.4,0-.77-.25-.77-.53v-18.53Z"/><circle class="cls-1" cx="68.15" cy="41.61" r="4.78"/></g></svg>