<?xml version="1.0" encoding="UTF-8"?><svg id="Layer_2" xmlns="http://www.w3.org/2000/svg" viewBox="0 0 126.69 105"><defs><style>.cls-1{fill:#fff;}.cls-2{fill:none;stroke:#fff;stroke-miterlimit:10;stroke-width:5px;}</style></defs><g id="Chat_-_Active_white_"><g id="d"><path class="cls-2" d="m25.76,22.87V6.02c0-1.94,1.58-3.52,3.52-3.52h91.39c1.94,0,3.52,1.58,3.52,3.52v73.36c0,2.27-2.6,3.56-4.41,2.2l-12.21-12.6c-1.13-1.15-2.67-1.81-4.29-1.81h-2.34"/><path class="cls-2" d="m97.41,87.53H21.65c-1.52,0-2.95.66-3.94,1.81l-10.8,12.6c-1.81,1.36-4.41.08-4.41-2.19V26.39c0-1.94,1.58-3.52,3.52-3.52h91.39c1.94,0,3.52,1.58,3.52,3.52v57.63c0,1.94-1.58,3.52-3.52,3.52h0Z"/><circle class="cls-1" cx="36.13" cy="56.47" r="4.87"/><circle class="cls-1" cx="52.31" cy="56.47" r="4.87"/><circle class="cls-1" cx="68.47" cy="56.47" r="4.87"/></g></g></svg>