<?xml version="1.0" encoding="UTF-8"?><svg id="Layer_2" xmlns="http://www.w3.org/2000/svg" viewBox="0 0 131.93 103.99"><defs><style>.cls-1{fill:none;stroke:#fff;stroke-miterlimit:10;stroke-width:4px;}</style></defs><g id="Contacts_-_Active_white_"><g id="d"><circle class="cls-1" cx="65.96" cy="23.99" r="21.99"/><path class="cls-1" d="m65.96,51.38h0c17.61,0,31.91,14.3,31.91,31.91v18.7h-63.83v-18.7c0-17.61,14.3-31.91,31.91-31.91h.01Z"/><circle class="cls-1" cx="25.53" cy="44.49" r="16.22"/><path class="cls-1" d="m25.53,64.68h0c12.98,0,23.53,10.54,23.53,23.53v13.78H2v-13.78c0-12.98,10.54-23.53,23.53-23.53Z"/><circle class="cls-1" cx="106.4" cy="44.49" r="16.22"/><path class="cls-1" d="m106.4,64.68h0c12.98,0,23.53,10.54,23.53,23.53v13.78h-47.04v-13.78c0-12.98,10.54-23.53,23.53-23.53h-.01Z"/></g></g></svg>