<?xml version="1.0" encoding="UTF-8"?><svg id="Layer_2" xmlns="http://www.w3.org/2000/svg" viewBox="0 0 128.97 37.3"><defs><style>.cls-1{fill:none;stroke:#231f20;stroke-linecap:round;stroke-miterlimit:10;stroke-width:3.97px;}</style></defs><g id="Projects_-_Idle"><g id="d"><line class="cls-1" x1="1.99" y1="18.65" x2="47.72" y2="18.65"/><circle class="cls-1" cx="64.38" cy="18.65" r="16.66"/><line class="cls-1" x1="81.25" y1="18.65" x2="126.99" y2="18.65"/><g><path d="M61.14,10.14c-.55-.55-1.35-.87-2.18-.87-.83,0-1.63,.32-2.18,.87-1.2,1.2-1.2,3.16,0,4.36l11.47,11.47c.58,.58,1.35,.9,2.18,.9s1.6-.32,2.18-.9,.9-1.35,.9-2.18-.32-1.6-.9-2.18l-11.47-11.47Zm11.06,13.65c0,.47-.18,.92-.51,1.25-.32,.32-.77,.5-1.25,.5s-.93-.18-1.25-.5l-11.47-11.47c-.69-.69-.69-1.81,0-2.5,.33-.33,.78-.51,1.25-.51s.92,.18,1.25,.51l11.47,11.47c.33,.33,.51,.78,.51,1.25Z"/><path d="M70.38,15.5c1.72,0,3.13-1.4,3.13-3.13s-1.4-3.13-3.13-3.13-3.13,1.4-3.13,3.13,1.4,3.13,3.13,3.13Zm0-4.94c1,0,1.81,.81,1.81,1.81s-.81,1.81-1.81,1.81-1.81-.81-1.81-1.81,.81-1.81,1.81-1.81Z"/><path d="M59,20.62c-1.72,0-3.13,1.4-3.13,3.13s1.4,3.13,3.13,3.13,3.13-1.4,3.13-3.13-1.4-3.13-3.13-3.13Zm1.81,3.13c0,1-.81,1.81-1.81,1.81s-1.81-.81-1.81-1.81,.81-1.81,1.81-1.81,1.81,.81,1.81,1.81Z"/></g></g></g></svg>