<?xml version="1.0" encoding="UTF-8"?><svg id="Layer_2" xmlns="http://www.w3.org/2000/svg" viewBox="0 0 129.22 66.28"><defs><style>.cls-1{fill:#711fff;}.cls-2{stroke-linecap:round;stroke-linejoin:round;}.cls-2,.cls-3{fill:none;stroke:#711fff;stroke-width:4.22px;}.cls-3{stroke-miterlimit:10;}</style></defs><g id="Projects_-_Active"><g id="d"><circle class="cls-3" cx="19.8" cy="32.78" r="17.69"/><line class="cls-2" x1="37.49" y1="32.78" x2="127.11" y2="32.78"/><path class="cls-2" d="M30.96,19.06l14.39-14.39c1.64-1.64,3.86-2.56,6.17-2.56h39.02"/><path class="cls-2" d="M30.96,47.22l14.39,14.39c1.64,1.64,3.86,2.56,6.17,2.56h16.76"/><g><path class="cls-1" d="M16.51,23.71c-.55-.55-1.35-.87-2.18-.87-.83,0-1.63,.32-2.18,.87-1.2,1.2-1.2,3.16,0,4.36l11.47,11.47c.58,.58,1.35,.9,2.18,.9s1.6-.32,2.18-.9,.9-1.35,.9-2.18-.32-1.6-.9-2.18l-11.47-11.47Zm11.06,13.65c0,.47-.18,.92-.51,1.25-.32,.32-.77,.5-1.25,.5s-.93-.18-1.25-.5l-11.47-11.47c-.69-.69-.69-1.81,0-2.5,.33-.33,.78-.51,1.25-.51s.92,.18,1.25,.51l11.47,11.47c.33,.33,.51,.78,.51,1.25Z"/><path class="cls-1" d="M25.76,29.07c1.72,0,3.13-1.4,3.13-3.13s-1.4-3.13-3.13-3.13-3.13,1.4-3.13,3.13,1.4,3.13,3.13,3.13Zm0-4.94c1,0,1.81,.81,1.81,1.81s-.81,1.81-1.81,1.81-1.81-.81-1.81-1.81,.81-1.81,1.81-1.81Z"/><path class="cls-1" d="M14.38,34.19c-1.72,0-3.13,1.4-3.13,3.13s1.4,3.13,3.13,3.13,3.13-1.4,3.13-3.13-1.4-3.13-3.13-3.13Zm1.81,3.13c0,1-.81,1.81-1.81,1.81s-1.81-.81-1.81-1.81,.81-1.81,1.81-1.81,1.81,.81,1.81,1.81Z"/></g></g></g></svg>