<?xml version="1.0" encoding="UTF-8"?><svg id="Layer_2" xmlns="http://www.w3.org/2000/svg" viewBox="0 0 112.45 89.93"><defs><style>.cls-1{stroke-linecap:round;stroke-linejoin:round;}.cls-1,.cls-2{fill:none;stroke:#fff;stroke-width:5px;}.cls-2{stroke-miterlimit:10;}</style></defs><g id="Net_Net_U_-_Active_white_"><g id="d"><path class="cls-2" d="m53.92,43.84L4.67,24.92c-2.97-1.14-2.87-4.46.17-5.49L54.09,2.75c.98-.33,2.09-.34,3.08,0l50.41,16.68c3.08,1.02,3.18,4.38.17,5.51l-50.4,18.91c-1.08.41-2.34.4-3.42-.01h-.01Z"/><path class="cls-2" d="m95.95,28.12v47.09c0,1.58-.92,3.03-2.35,3.68-25.32,11.38-50.64,11.38-75.96,0-1.45-.65-2.35-2.1-2.35-3.68V29.03"/><polyline class="cls-1" points="56.22 23.33 82.04 34.58 82.04 53.55"/></g></g></svg>