<?xml version="1.0" encoding="UTF-8"?><svg id="Layer_2" xmlns="http://www.w3.org/2000/svg" viewBox="0 0 112.45 70.82"><defs><style>.cls-1,.cls-2{fill:none;stroke:#231f20;stroke-miterlimit:10;stroke-width:5px;}.cls-2{stroke-linecap:round;}</style></defs><g id="Net_Net_U_-_Idle"><g id="d"><path class="cls-1" d="M53.92,43.84L4.67,24.92c-2.97-1.14-2.87-4.46,.17-5.49L54.09,2.75c.98-.33,2.09-.34,3.08,0l50.41,16.68c3.08,1.02,3.18,4.38,.17,5.51l-50.4,18.91c-1.08,.41-2.34,.4-3.42-.01h-.01Z"/><path class="cls-1" d="M95.96,28.12v27.98c0,1.58-.92,3.03-2.35,3.68-25.32,11.38-50.64,11.38-75.96,0-1.45-.65-2.35-2.1-2.35-3.68V29.02"/><polyline class="cls-2" points="56.22 23.33 82.04 34.58 82.04 53.54"/></g></g></svg>