<?xml version="1.0" encoding="UTF-8"?><svg id="Layer_2" xmlns="http://www.w3.org/2000/svg" viewBox="0 0 92.6 92.6"><defs><style>.cls-1{stroke-width:2.6px;}.cls-1,.cls-2{fill:none;stroke:#711fff;stroke-linecap:round;stroke-miterlimit:10;}.cls-2{stroke-width:2.66px;}</style></defs><g id="Quick_Tasks_-_Active"><g id="g48"><g id="path46"><path class="cls-1" d="M46.3,1.3c5.6,0,4.84,5.28,10.25,6.73,5.41,1.45,7.4-3.51,12.25-.71,4.85,2.8,1.55,7,5.51,10.96,3.96,3.96,8.16.66,10.96,5.51,2.8,4.85-2.16,6.84-.71,12.25,1.45,5.41,6.74,4.65,6.74,10.25s-5.29,4.84-6.74,10.25c-1.45,5.41,3.51,7.4.71,12.25s-7,1.55-10.96,5.51c-3.96,3.96-.66,8.16-5.51,10.96-4.85,2.8-6.84-2.16-12.25-.71-5.41,1.45-4.65,6.73-10.25,6.73s-4.84-5.28-10.25-6.73c-5.41-1.45-7.4,3.51-12.25.71-4.85-2.8-1.55-7-5.51-10.96-3.96-3.96-8.16-.66-10.96-5.51-2.8-4.85,2.16-6.84.71-12.25-1.45-5.41-6.73-4.65-6.73-10.25s5.29-4.84,6.73-10.25c1.45-5.41-3.51-7.4-.71-12.25,2.8-4.85,7-1.55,10.96-5.51,3.96-3.96.66-8.16,5.51-10.96,4.85-2.8,6.84,2.16,12.25.71,5.41-1.45,4.65-6.73,10.25-6.73Z"/></g><g id="path47"><circle class="cls-1" cx="46.3" cy="46.3" r="34.73"/></g><g id="path37-62-9"><path class="cls-2" d="M66.38,28.39l-27.87,23.88-13.25-14.98-7.43,6.57,19.71,22.29,35.29-30.23-6.45-7.54Z"/></g></g></g></svg>