<?xml version="1.0" encoding="UTF-8"?><svg id="Layer_2" xmlns="http://www.w3.org/2000/svg" viewBox="0 0 125 118"><defs><style>.cls-1{fill:#711fff;}.cls-2{fill:none;stroke:#711fff;stroke-miterlimit:10;stroke-width:5px;}</style></defs><g id="Opportunities_-_Active"><g id="d"><path class="cls-2" d="M55.3,96.99c-7.6-.47-14.96-2.14-22.07-4.99-1.17-.47-1.91-1.62-1.91-2.87v-12.86c0-2.22,2.29-3.76,4.33-2.87,3.39,1.48,6.96,2.76,10.73,3.84,5.42,1.57,10.18,2.37,14.28,2.37,3.39,0,5.87-.41,7.44-1.23,1.57-.81,2.37-2.19,2.37-4.09,0-1.31-.57-2.43-1.7-3.34-1.13-.91-3.03-1.95-5.67-3.11-2.64-1.15-6.23-2.55-10.73-4.18-5.06-1.86-9.14-3.97-12.26-6.31s-5.37-4.94-6.78-7.83c-1.41-2.89-2.12-6.49-2.12-10.78,0-6.57,2.11-11.71,6.34-15.42,4.02-3.53,9.97-5.77,17.85-6.74,.65-.08,1.15-.63,1.15-1.28v-3.91c0-1.72,1.39-3.11,3.11-3.11h6.14c1.72,0,3.11,1.39,3.11,3.11v3.75c0,.68,.54,1.23,1.22,1.3,6.55,.49,13.15,2.01,19.78,4.57,1.64,.63,2.43,2.5,1.75,4.12l-4.69,11.24c-.66,1.57-2.46,2.32-4.04,1.69-7.2-2.93-13.76-4.39-19.7-4.39-3.19,0-5.43,.39-6.73,1.17-1.3,.78-1.95,1.93-1.95,3.44,0,1.31,.47,2.4,1.41,3.26s2.56,1.82,4.86,2.87c2.3,1.05,5.51,2.29,9.61,3.68,8.32,2.95,14.3,6.31,17.93,10.07s5.43,8.61,5.43,14.54c0,6.7-2.12,12.13-6.36,16.31-4.23,4.18-9.86,6.53-17.43,7.62-.65,.1-1.13,.63-1.13,1.28v7.28c0,1.72-1.39,3.11-3.11,3.11h-6.14c-1.72,0-3.11-1.39-3.11-3.11v-6.84c0-.68-.54-1.25-1.23-1.3v-.03Z"/><g><path class="cls-1" d="M121.77,54.78h-10.26c-1.77,0-3.23,1.89-3.23,4.22s1.45,4.22,3.23,4.22h10.26c1.77,0,3.23-1.89,3.23-4.22s-1.45-4.22-3.23-4.22Z"/><path class="cls-1" d="M13.49,54.78H3.23c-1.77,0-3.23,1.89-3.23,4.22s1.45,4.22,3.23,4.22H13.49c1.77,0,3.23-1.89,3.23-4.22s-1.45-4.22-3.23-4.22Z"/><path class="cls-1" d="M109.14,1.23l-7.25,9.48c-1.26,1.64-1.26,4.32,0,5.96,.63,.83,1.46,1.23,2.28,1.23s1.66-.41,2.28-1.23l7.25-9.48c.61-.8,.94-1.86,.94-2.98s-.34-2.18-.94-2.98c-1.26-1.64-3.3-1.64-4.56,0Z"/><path class="cls-1" d="M18.57,101.33l-7.25,9.48c-1.26,1.64-1.26,4.32,0,5.96,.63,.83,1.46,1.23,2.28,1.23s1.66-.41,2.28-1.23l7.25-9.48c1.26-1.64,1.26-4.32,0-5.96s-3.3-1.64-4.56,0Z"/><path class="cls-1" d="M106.45,101.33c-1.26-1.64-3.3-1.64-4.56,0s-1.26,4.32,0,5.96l7.25,9.48c.63,.81,1.46,1.23,2.28,1.23s1.66-.41,2.28-1.23c1.26-1.64,1.26-4.32,0-5.96l-7.25-9.48Z"/><path class="cls-1" d="M16.88,1.23c-1.26-1.64-3.3-1.64-4.56,0s-1.26,4.32,0,5.96l7.25,9.48c.63,.83,1.46,1.23,2.28,1.23s1.66-.41,2.28-1.23c1.26-1.64,1.26-4.32,0-5.96L16.88,1.23Z"/></g></g></g></svg>