<?xml version="1.0" encoding="UTF-8"?><svg id="Layer_2" xmlns="http://www.w3.org/2000/svg" viewBox="0 0 111.51 118"><defs><style>.cls-1{fill:#fff;}.cls-2{fill:none;stroke:#fff;stroke-miterlimit:10;stroke-width:5px;}</style></defs><g id="Opportunities_-_Active_white_"><g id="d"><path class="cls-2" d="m48.42,97.69c-7.6-.5-14.96-2.2-22.05-5.08-1.17-.47-1.91-1.63-1.9-2.88l.05-12.86c0-2.22,2.3-3.75,4.34-2.85,3.38,1.49,6.94,2.78,10.72,3.88,5.41,1.59,10.17,2.41,14.27,2.42,3.39.01,5.87-.38,7.45-1.2,1.58-.8,2.38-2.18,2.38-4.08,0-1.31-.56-2.43-1.69-3.35-1.13-.91-3.02-1.96-5.66-3.13-2.64-1.16-6.22-2.57-10.72-4.22-5.05-1.88-9.13-4.01-12.23-6.35-3.1-2.35-5.35-4.97-6.75-7.86-1.4-2.89-2.1-6.49-2.08-10.79.03-6.57,2.15-11.7,6.4-15.39,4.03-3.52,9.99-5.73,17.88-6.68.65-.08,1.15-.63,1.16-1.28l.02-3.91c0-1.72,1.41-3.11,3.12-3.1l6.14.02c1.72,0,3.11,1.41,3.1,3.12v3.75c-.02.68.52,1.23,1.2,1.3,6.55.51,13.14,2.06,19.76,4.65,1.64.64,2.42,2.51,1.73,4.12l-4.73,11.22c-.67,1.57-2.47,2.31-4.04,1.67-7.19-2.96-13.75-4.45-19.68-4.47-3.19-.01-5.43.37-6.73,1.14-1.3.77-1.95,1.92-1.96,3.43,0,1.31.46,2.4,1.4,3.26s2.55,1.83,4.85,2.89c2.3,1.06,5.5,2.31,9.6,3.72,8.31,2.98,14.28,6.36,17.89,10.14,3.62,3.78,5.4,8.63,5.37,14.56-.03,6.7-2.17,12.12-6.42,16.29s-9.88,6.5-17.46,7.55c-.65.09-1.14.63-1.14,1.28l-.03,7.28c0,1.72-1.41,3.11-3.12,3.1l-6.14-.02c-1.72,0-3.11-1.41-3.1-3.12l.03-6.84c0-.68-.53-1.25-1.23-1.3v-.03Z"/><path class="cls-1" d="m108.63,54.78h-9.15c-1.58,0-2.88,1.89-2.88,4.22s1.29,4.22,2.88,4.22h9.15c1.58,0,2.88-1.89,2.88-4.22s-1.29-4.22-2.88-4.22Z"/><path class="cls-1" d="m12.03,54.78H2.88c-1.58,0-2.88,1.89-2.88,4.22s1.29,4.22,2.88,4.22h9.15c1.58,0,2.88-1.89,2.88-4.22s-1.29-4.22-2.88-4.22Z"/><path class="cls-1" d="m97.36,1.23l-6.47,9.48c-1.12,1.64-1.12,4.32,0,5.96.57.83,1.3,1.23,2.03,1.23s1.48-.41,2.03-1.23l6.47-9.48c.55-.8.84-1.86.84-2.98s-.3-2.18-.84-2.98c-1.12-1.64-2.95-1.64-4.07,0Z"/><path class="cls-1" d="m16.56,101.33l-6.47,9.48c-1.12,1.64-1.12,4.32,0,5.96.57.83,1.3,1.23,2.03,1.23s1.48-.41,2.03-1.23l6.47-9.48c1.12-1.64,1.12-4.32,0-5.96-1.12-1.64-2.95-1.64-4.07,0Z"/><path class="cls-1" d="m94.96,101.33c-1.12-1.64-2.95-1.64-4.07,0-1.12,1.64-1.12,4.32,0,5.96l6.47,9.48c.57.81,1.3,1.23,2.03,1.23s1.48-.41,2.03-1.23c1.12-1.64,1.12-4.32,0-5.96l-6.47-9.48Z"/><path class="cls-1" d="m15.05,1.23c-1.12-1.64-2.95-1.64-4.07,0s-1.12,4.32,0,5.96l6.47,9.48c.57.83,1.3,1.23,2.03,1.23s1.48-.41,2.03-1.23c1.12-1.64,1.12-4.32,0-5.96,0,0-6.47-9.48-6.47-9.48Z"/></g></g></svg>