<?xml version="1.0" encoding="UTF-8"?><svg id="Layer_2" xmlns="http://www.w3.org/2000/svg" viewBox="0 0 67.68 105"><defs><style>.cls-1{fill:none;stroke:#000;stroke-linecap:round;stroke-miterlimit:10;stroke-width:5px;}</style></defs><g id="Opportunities_-_Idle"><g id="d"><path class="cls-1" d="M26.62,91.25c-7.6-.48-14.97-2.14-22.08-4.99-1.16-.47-1.91-1.62-1.91-2.88v-12.86c0-2.23,2.28-3.76,4.33-2.86,3.39,1.47,6.96,2.75,10.73,3.86,5.42,1.57,10.18,2.37,14.29,2.37,3.39,0,5.87-.41,7.44-1.22,1.57-.82,2.37-2.18,2.37-4.1,0-1.32-.57-2.42-1.7-3.35-1.13-.92-3.03-1.96-5.69-3.11-2.65-1.15-6.23-2.55-10.73-4.18-5.06-1.87-9.15-3.97-12.25-6.31-3.11-2.33-5.37-4.95-6.79-7.83-1.42-2.89-2.13-6.48-2.13-10.79,0-6.58,2.11-11.71,6.34-15.43,4.03-3.53,9.98-5.79,17.85-6.75,.65-.09,1.16-.62,1.16-1.29v-3.91c0-1.72,1.39-3.12,3.12-3.12h6.14c1.72,0,3.12,1.39,3.12,3.12v3.74c0,.68,.52,1.25,1.21,1.29,6.55,.5,13.16,2.01,19.8,4.57,1.64,.62,2.44,2.5,1.76,4.11l-4.69,11.23c-.65,1.57-2.47,2.33-4.04,1.67-7.2-2.94-13.77-4.41-19.71-4.41-3.19,0-5.43,.38-6.72,1.16-1.29,.78-1.94,1.93-1.94,3.43,0,1.32,.47,2.4,1.4,3.26,.94,.85,2.57,1.82,4.88,2.86,2.31,1.06,5.52,2.28,9.63,3.67,8.32,2.95,14.31,6.31,17.94,10.07,3.63,3.77,5.45,8.62,5.45,14.56,0,6.69-2.13,12.14-6.37,16.32-4.04,3.98-9.86,6.54-17.43,7.63-.64,.1-1.13,.64-1.13,1.29v7.29c0,1.72-1.39,3.12-3.12,3.12h-6.14c-1.72,0-3.12-1.39-3.12-3.12v-6.83c0-.69-.54-1.25-1.22-1.29h-.03Z"/></g></g></svg>