<?xml version="1.0" encoding="UTF-8" standalone="no"?>
<!-- Created with Keyshape -->
<svg xmlns="http://www.w3.org/2000/svg" viewBox="0 0 180 180" text-rendering="geometricPrecision" shape-rendering="geometricPrecision" style="white-space: pre;">
    <style>
@keyframes a0_t { 0% { transform: translate(87.5875px,87.6px) rotate(0deg) translate(-63.9125px,-64px); animation-timing-function: cubic-bezier(0.77,0,0.175,1); } 9.0909% { transform: translate(87.5875px,87.6px) rotate(90deg) translate(-63.9125px,-64px); } 36.3636% { transform: translate(87.5875px,87.6px) rotate(90deg) translate(-63.9125px,-64px); animation-timing-function: cubic-bezier(0.77,0,0.175,1); } 45.4545% { transform: translate(87.5875px,87.6px) rotate(180deg) translate(-63.9125px,-64px); } 100% { transform: translate(87.5875px,87.6px) rotate(180deg) translate(-63.9125px,-64px); } }
@keyframes o-3_t { 0% { transform: translate(105.125px,22.7px) scale(1,1) translate(-416.2px,-46.3px); animation-timing-function: cubic-bezier(0.77,0,0.175,1); } 3.6363% { transform: translate(105.125px,22.7px) scale(0,0) translate(-416.2px,-46.3px); animation-timing-function: cubic-bezier(0.77,0,0.175,1); } 5.4545% { transform: translate(105.125px,22.7px) scale(0,0) translate(-416.2px,-46.3px); animation-timing-function: cubic-bezier(0.77,0,0.175,1); } 9.0909% { transform: translate(105.125px,22.7px) scale(1,1) translate(-416.2px,-46.3px); } 36.3636% { transform: translate(105.125px,22.7px) scale(1,1) translate(-416.2px,-46.3px); animation-timing-function: cubic-bezier(0.77,0,0.175,1); } 40% { transform: translate(105.125px,22.7px) scale(0,0) translate(-416.2px,-46.3px); animation-timing-function: cubic-bezier(0.77,0,0.175,1); } 41.8181% { transform: translate(105.125px,22.7px) scale(0,0) translate(-416.2px,-46.3px); animation-timing-function: cubic-bezier(0.77,0,0.175,1); } 45.4545% { transform: translate(105.125px,22.7px) scale(1,1) translate(-416.2px,-46.3px); } 100% { transform: translate(105.125px,22.7px) scale(1,1) translate(-416.2px,-46.3px); } }
@keyframes o-4_t { 0% { transform: translate(22.725px,105.3px) scale(1,1) translate(-333.8px,-128.9px); animation-timing-function: cubic-bezier(0.77,0,0.175,1); } 3.6363% { transform: translate(22.725px,105.3px) scale(0,0) translate(-333.8px,-128.9px); animation-timing-function: cubic-bezier(0.77,0,0.175,1); } 5.4545% { transform: translate(22.725px,105.3px) scale(0,0) translate(-333.8px,-128.9px); animation-timing-function: cubic-bezier(0.77,0,0.175,1); } 9.0909% { transform: translate(22.725px,105.3px) scale(1,1) translate(-333.8px,-128.9px); } 36.3636% { transform: translate(22.725px,105.3px) scale(1,1) translate(-333.8px,-128.9px); animation-timing-function: cubic-bezier(0.77,0,0.175,1); } 40% { transform: translate(22.725px,105.3px) scale(0,0) translate(-333.8px,-128.9px); animation-timing-function: cubic-bezier(0.77,0,0.175,1); } 41.8181% { transform: translate(22.725px,105.3px) scale(0,0) translate(-333.8px,-128.9px); animation-timing-function: cubic-bezier(0.77,0,0.175,1); } 45.4545% { transform: translate(22.725px,105.3px) scale(1,1) translate(-333.8px,-128.9px); } 100% { transform: translate(22.725px,105.3px) scale(1,1) translate(-333.8px,-128.9px); } }
@keyframes a1_t { 0% { transform: translate(87.5875px,87.6px) rotate(0deg) translate(-63.9125px,-64px); animation-timing-function: cubic-bezier(0.77,0,0.175,1); } 9.0909% { transform: translate(87.5875px,87.6px) rotate(90deg) translate(-63.9125px,-64px); } 36.3636% { transform: translate(87.5875px,87.6px) rotate(90deg) translate(-63.9125px,-64px); animation-timing-function: cubic-bezier(0.77,0,0.175,1); } 45.4545% { transform: translate(87.5875px,87.6px) rotate(180deg) translate(-63.9125px,-64px); } 100% { transform: translate(87.5875px,87.6px) rotate(180deg) translate(-63.9125px,-64px); } }
@keyframes o-2_t { 0% { transform: translate(105.125px,22.7px) scale(1,1) translate(-416.2px,-46.3px); animation-timing-function: cubic-bezier(0.77,0,0.175,1); } 3.6363% { transform: translate(105.125px,22.7px) scale(0,0) translate(-416.2px,-46.3px); animation-timing-function: cubic-bezier(0.77,0,0.175,1); } 5.4545% { transform: translate(105.125px,22.7px) scale(0,0) translate(-416.2px,-46.3px); animation-timing-function: cubic-bezier(0.77,0,0.175,1); } 9.0909% { transform: translate(105.125px,22.7px) scale(1,1) translate(-416.2px,-46.3px); } 36.3636% { transform: translate(105.125px,22.7px) scale(1,1) translate(-416.2px,-46.3px); animation-timing-function: cubic-bezier(0.77,0,0.175,1); } 40% { transform: translate(105.125px,22.7px) scale(0,0) translate(-416.2px,-46.3px); animation-timing-function: cubic-bezier(0.77,0,0.175,1); } 41.8181% { transform: translate(105.125px,22.7px) scale(0,0) translate(-416.2px,-46.3px); animation-timing-function: cubic-bezier(0.77,0,0.175,1); } 45.4545% { transform: translate(105.125px,22.7px) scale(1,1) translate(-416.2px,-46.3px); } 100% { transform: translate(105.125px,22.7px) scale(1,1) translate(-416.2px,-46.3px); } }
@keyframes o-1_t { 0% { transform: translate(22.725px,105.3px) scale(1,1) translate(-333.8px,-128.9px); animation-timing-function: cubic-bezier(0.77,0,0.175,1); } 3.6363% { transform: translate(22.725px,105.3px) scale(0,0) translate(-333.8px,-128.9px); animation-timing-function: cubic-bezier(0.77,0,0.175,1); } 5.4545% { transform: translate(22.725px,105.3px) scale(0,0) translate(-333.8px,-128.9px); animation-timing-function: cubic-bezier(0.77,0,0.175,1); } 9.0909% { transform: translate(22.725px,105.3px) scale(1,1) translate(-333.8px,-128.9px); } 36.3636% { transform: translate(22.725px,105.3px) scale(1,1) translate(-333.8px,-128.9px); animation-timing-function: cubic-bezier(0.77,0,0.175,1); } 40% { transform: translate(22.725px,105.3px) scale(0,0) translate(-333.8px,-128.9px); animation-timing-function: cubic-bezier(0.77,0,0.175,1); } 41.8181% { transform: translate(22.725px,105.3px) scale(0,0) translate(-333.8px,-128.9px); animation-timing-function: cubic-bezier(0.77,0,0.175,1); } 45.4545% { transform: translate(22.725px,105.3px) scale(1,1) translate(-333.8px,-128.9px); } 100% { transform: translate(22.725px,105.3px) scale(1,1) translate(-333.8px,-128.9px); } }
    </style>
    <g id="logo-outline" display="none" transform="translate(91.6,90) translate(-87.6,-87.6)">
        <path class="st0" d="M146.361,176.5L34.6393,176.5C18.0479,176.5,4.5,162.952,4.5,146.361L4.5,34.6393C4.5,18.0479,18.0479,4.5,34.6393,4.5L146.361,4.5C162.952,4.5,176.5,18.0479,176.5,34.6393L176.5,146.361C176.5,162.952,162.952,176.5,146.361,176.5Z" stroke-width="9" stroke="#FFFFFF" stroke-miterlimit="10" fill="none" transform="translate(87.6,89.2) translate(-92.1,-92.1)"/>
        <g transform="translate(87.5875,87.6) translate(-63.9125,-64)" style="animation: 11s linear infinite both a0_t;">
            <path id="o-3" class="st1" d="M416.2,69C428.7,69,438.9,58.8,438.9,46.3C438.9,33.8,428.7,23.6,416.2,23.6C403.7,23.6,393.5,33.8,393.5,46.3C393.5,58.8,403.7,69,416.2,69ZM416.2,33.2C423.4,33.2,429.3,39.1,429.3,46.3C429.3,53.5,423.4,59.4,416.2,59.4C409,59.4,403.1,53.5,403.1,46.3C403.1,39.1,409,33.2,416.2,33.2Z" fill="#FFFFFF" transform="translate(105.125,22.7) translate(-416.2,-46.3)" style="animation: 11s linear infinite both o-3_t;"/>
            <path id="center-2" class="st1" d="M349.2,30.2C345.2,26.2,339.4,23.9,333.4,23.9C327.4,23.9,321.6,26.2,317.6,30.2C308.9,38.9,308.9,53.1,317.6,61.8L400.8,145C405,149.2,410.6,151.5,416.6,151.5C422.6,151.5,428.2,149.2,432.4,145C436.6,140.8,438.9,135.2,438.9,129.2C438.9,123.2,436.6,117.6,432.4,113.4L349.2,30.2ZM429.4,129.2C429.4,132.6,428.1,135.9,425.7,138.3C423.4,140.6,420.1,141.9,416.6,141.9C413.1,141.9,409.8,140.6,407.5,138.3L324.3,55.1C319.3,50.1,319.3,42,324.3,37C326.7,34.6,329.9,33.3,333.4,33.3C336.9,33.3,340.1,34.6,342.5,37L425.7,120.2C428.1,122.5,429.4,125.7,429.4,129.2Z" fill="#FFFFFF" transform="translate(63.9125,64.1) translate(-374.987,-87.7)"/>
            <path id="o-4" class="st1" d="M333.8,106.2C321.3,106.2,311.1,116.4,311.1,128.9C311.1,141.4,321.3,151.6,333.8,151.6C346.3,151.6,356.5,141.4,356.5,128.9C356.4,116.3,346.3,106.2,333.8,106.2ZM346.9,128.8C346.9,136,341,141.9,333.8,141.9C326.6,141.9,320.7,136,320.7,128.8C320.7,121.6,326.6,115.7,333.8,115.7C341,115.7,346.9,121.6,346.9,128.8Z" fill="#FFFFFF" transform="translate(22.725,105.3) translate(-333.8,-128.9)" style="animation: 11s linear infinite both o-4_t;"/>
        </g>
    </g>
    <g id="logo" transform="translate(90,90) translate(-87.6,-87.6)">
        <path class="st0" d="M431.9,175.2L318.1,175.2C301.2,175.2,287.4,161.4,287.4,144.5L287.4,30.7C287.4,13.8,301.2,0,318.1,0L431.9,0C448.8,0,462.6,13.8,462.6,30.7L462.6,144.5C462.6,161.4,448.8,175.2,431.9,175.2Z" fill="#711FFF" transform="translate(87.6,87.6) translate(-375,-87.6)"/>
        <g transform="translate(87.5875,87.6) translate(-63.9125,-64)" style="animation: 11s linear infinite both a1_t;">
            <path id="o-2" class="st1" d="M416.2,69C428.7,69,438.9,58.8,438.9,46.3C438.9,33.8,428.7,23.6,416.2,23.6C403.7,23.6,393.5,33.8,393.5,46.3C393.5,58.8,403.7,69,416.2,69ZM416.2,33.2C423.4,33.2,429.3,39.1,429.3,46.3C429.3,53.5,423.4,59.4,416.2,59.4C409,59.4,403.1,53.5,403.1,46.3C403.1,39.1,409,33.2,416.2,33.2Z" fill="#FFFFFF" transform="translate(105.125,22.7) translate(-416.2,-46.3)" style="animation: 11s linear infinite both o-2_t;"/>
            <path id="center" class="st1" d="M349.2,30.2C345.2,26.2,339.4,23.9,333.4,23.9C327.4,23.9,321.6,26.2,317.6,30.2C308.9,38.9,308.9,53.1,317.6,61.8L400.8,145C405,149.2,410.6,151.5,416.6,151.5C422.6,151.5,428.2,149.2,432.4,145C436.6,140.8,438.9,135.2,438.9,129.2C438.9,123.2,436.6,117.6,432.4,113.4L349.2,30.2ZM429.4,129.2C429.4,132.6,428.1,135.9,425.7,138.3C423.4,140.6,420.1,141.9,416.6,141.9C413.1,141.9,409.8,140.6,407.5,138.3L324.3,55.1C319.3,50.1,319.3,42,324.3,37C326.7,34.6,329.9,33.3,333.4,33.3C336.9,33.3,340.1,34.6,342.5,37L425.7,120.2C428.1,122.5,429.4,125.7,429.4,129.2Z" fill="#FFFFFF" transform="translate(63.9125,64.1) translate(-374.987,-87.7)"/>
            <path id="o-1" class="st1" d="M333.8,106.2C321.3,106.2,311.1,116.4,311.1,128.9C311.1,141.4,321.3,151.6,333.8,151.6C346.3,151.6,356.5,141.4,356.5,128.9C356.4,116.3,346.3,106.2,333.8,106.2ZM346.9,128.8C346.9,136,341,141.9,333.8,141.9C326.6,141.9,320.7,136,320.7,128.8C320.7,121.6,326.6,115.7,333.8,115.7C341,115.7,346.9,121.6,346.9,128.8Z" fill="#FFFFFF" transform="translate(22.725,105.3) translate(-333.8,-128.9)" style="animation: 11s linear infinite both o-1_t;"/>
        </g>
    </g>
</svg>
