<?xml version="1.0" encoding="UTF-8"?>
<svg id="Layer_2" xmlns="http://www.w3.org/2000/svg" version="1.1" viewBox="0 0 784.5 787.5">
  <!-- Generator: Adobe Illustrator 30.0.0, SVG Export Plug-In . SVG Version: 2.1.1 Build 123)  -->
  <defs>
    <style>
      .st0 {
        fill: none;
        stroke: #245492;
        stroke-miterlimit: 10;
        stroke-width: 13px;
      }
    </style>
  </defs>
  <g id="Layer_1-2">
    <g>
      <polygon class="st0" points="468.7 160.2 353.1 227 122.1 360.4 6.5 427.1 6.5 560.5 122.1 627.2 237.6 560.5 353.1 627.2 468.7 560.5 468.7 427.1 584.3 493.8 662.4 538.9 778 472.2 778 338.8 662.4 272.1 584.3 227 468.7 160.2"/>
      <polyline class="st0" points="122.1 627.2 122.1 493.8 6.5 427.1"/>
      <polyline class="st0" points="662.4 538.9 662.4 405.5 778 338.8"/>
      <line class="st0" x1="237.6" y1="427.1" x2="468.7" y2="560.5"/>
      <line class="st0" x1="237.6" y1="560.5" x2="237.6" y2="427.1"/>
      <polyline class="st0" points="584.3 360.4 468.7 427.1 237.6 560.5"/>
      <line class="st0" x1="584.3" y1="227" x2="584.3" y2="360.4"/>
      <line class="st0" x1="6.5" y1="560.5" x2="584.3" y2="227"/>
      <line class="st0" x1="353.1" y1="360.4" x2="353.1" y2="627.2"/>
      <line class="st0" x1="468.7" y1="427.1" x2="353.1" y2="360.4"/>
      <line class="st0" x1="468.7" y1="293.7" x2="468.7" y2="427.1"/>
      <line class="st0" x1="468.7" y1="293.7" x2="778" y2="472.2"/>
      <line class="st0" x1="468.7" y1="160.2" x2="468.7" y2="293.7"/>
    </g>
  </g>
</svg>