<?xml version="1.0" encoding="UTF-8"?><svg id="Layer_2" xmlns="http://www.w3.org/2000/svg" viewBox="0 0 378.93 378.93"><defs><style>.cls-1{fill-rule:evenodd;}.cls-1,.cls-2{fill:#fff;}.cls-1,.cls-2,.cls-3{stroke-width:0px;}.cls-3{fill:#d0181f;}</style></defs><g id="Favicon"><circle class="cls-3" cx="189.46" cy="189.46" r="189.46"/><path class="cls-1" d="M92.46,260.39c-.96,2.63-1.96,5.31-2.91,8-2.62,7.36-5.03,14.82-7.92,22.04-1.34,3.35-3.58,6.23-5.41,9.32-.46.79-.93,1.57-1.46,2.48.52.29.9.5,1.37.75-.12.83-.41,1.46-1.46.8-2.78-1.75-5.52-3.58-7.56-6.29-.38-.51-.91-1.05-1.46-1.3-1.7-.75-2.54-1.99-2.72-3.56-1.36-.65-2.58-1.24-3.93-1.89-.03-1.96-.83-3.52-2.82-4.63-1.1-.62-1.09-1.61-.35-2.47,1.65-1.9,3.04-3.94,3.99-6.38,1.08-2.78,2.7-5.29,3.9-8.01,1.8-4.11,3.36-8.34,5.17-12.44.88-1.99,2.11-3.77,3.25-5.75.58.37,1.01.65,1.82,1.16-.33-.72-.44-1.28-.64-1.35-2.38-.78-3.13-3.24-4.93-4.64-.79-.62-1.19-1.93-1.56-2.96-.79-2.23-.45-1.98,1.06-3.5,1.65-1.68,3.67-1.38,5.81-1.13,3.28.36,3.55.21,4.6-2.63,1.28-3.49,2.6-6.96,4.32-10.37.12.56.24,1.13.48,2.23.68-1.48,1.19-2.55,1.66-3.63,1.45-3.42,2.79-6.87,3.36-10.7.24-1.64.9-3.18,1.52-4.69.22-.52.81-1.08,1.38-1.17,1.26-.18,1.68-1.02,1.87-2.04.29-1.58.69-3.16.61-4.8-.16-3.53,1.49-5.69,4.46-6.81,1.35-.52,1.9-1.3,1.86-2.73-.06-1.8-.03-3.59-.03-5.37,1.82-.25,2.03,1.56,3.05,2.25.93.63,1.63,1.67,2.78,2.89-.02,0,.51.1.66.13.99,1.05,1.69,1.92,2.53,2.63.79.68,1.11,1.36,1.05,2.26-.24,3.79-.33,7.62-.71,11.37-.72,7.32-2.82,14.15-4.67,21.07-.18.67-.33,1.34-.49,2.01.14.12.27.24.41.36.81-.37,1.68-.68,2.42-1.14,8.75-5.51,16.27-12.38,23.55-19.52,3.01-2.95,5.96-5.97,8.19-9.6,2.53-4.13,5.3-8.12,6.59-13.02.33-1.26.86-2.44,1.31-3.64,2.58-6.93,3.02-14.39,1.81-22.2-.33-2.11-1.29-4.22-1.92-6.34-.42-1.41-1.64-1.88-2.74-2.23-2.6-.82-5.23-1.48-7.85-2.19-.36-.1-.74-.12-1.41-.22.43-.4.65-.62,1.06-1-2.78-.46-5.35-.53-7.87-.37-7.38.46-14.25,2.14-20.8,4.82-10.22,4.19-19.25,10-28.01,16.24-6.12,4.36-11.54,9.43-16.45,15.01-2.78,3.15-5.2,6.63-7.57,10.11-.92,1.35-1.28,3.14-1.9,4.76-.06,0-.28.08-.34,0-1.88-2.13-4.32-3.88-5.23-6.71-.2-.62-.82-1.22-1.32-1.76-.62-.65-1.26-.26-1.91-.3-.9-.07-2.23-.47-2.7-1.14-1.3-1.8-3.37-3.37-3.24-5.78.04-.73.02-1.51.27-2.14,1.48-3.83,3.6-7.22,6.16-10.32,7.55-9.17,16.52-16.81,26.83-22.97,5.12-3.06,10.34-5.99,15.52-8.98.18-.1.37-.23.57-.3,3.37-1.1,6.75-2.18,10.12-3.29,2.62-.86,5.28-1.66,7.82-2.66,4.04-1.59,8.15-2.93,12.82-2.88.15,0,.31-.08.45-.03,2.58.99,4.92.35,7.38.37,4.53.04,8.93,1.86,13.27,3.85,5.53,2.54,10.2,6.18,13.48,11.34,1.87,2.95,3.45,6.1,4.83,9.25,1.77,4.05,2.98,8.27,4.86,12.28,5.32,11.35,4.21,21.68.64,31.69-.52,1.46-1.34,2.8-2.15,4.12-.33.55-1.02.84-1.49,1.31-.39.38-.73.83-1.04,1.28-2.25,3.32-4.42,6.68-6.75,9.96-.86,1.22-1.67,2.58-3.65,2.58-.55,0-1.03.7-1.44,1.18-3.31,3.92-7.14,7.32-10.95,10.76-4.7,4.27-9.89,7.93-15.24,11.41-3.68,2.39-7.65,4.38-11.51,6.53-.87.48-1.71.88-2.94-.06-.82-.62-1.21-.33-2.68,1.2.67.66,1.28,1.47,2.05,1.97,8.71,5.56,17.22,15.32,26.38,20.03,4.46,2.3,9.02,4.27,13.77,5.52,4.12,1.07,7.84.61,11.31-.86,1.33-.56,2.58-1.24,3.88-1.85,1.24-.59,2.49-.98,3.63.81.84-.35,1.54-.64,2.57-1.06-.05,1.23-.02,2.17-.15,3.05-.14.86-.26,1.6.16,2.61.46,1.1.74,2.5-.35,3.29-1.59,1.14-1.63,2.92-1.23,4.76.27,1.28-.05,2-1,2.57-.97.58-1.82,1.3-2.78,1.89-2.76,1.67-6.02,1.76-9.42.99-5.16-1.18-10.09-3.35-14.89-5.95-8.47-4.59-16.72-13.38-24.96-18.46-4.7-2.89-9.67-5.29-14.54-7.85-.77-.41-1.67-.51-2.52-.72-.73-.17-1.48-.31-2.67-.55ZM83.8,266.93c-.41.09-.64.07-.67.14-2.35,6.76-4.69,13.52-7.01,20.28-.07.19-.06.43-.06.66,0,.05.08.13.14.18.06.05.13.08.42.23.81-.88,1.35-1.99,1.74-3.21,1.24-3.82,2.51-7.63,3.67-11.49.66-2.16,1.15-4.4,1.76-6.8ZM99.16,213.9c1.53-.74,1.39-2.39,1.7-3.78.18-.78.2-1.66-.79-2.56-.69,2.13-1.33,4.04-.91,6.34ZM104.26,224.95c-.21-.09-.43-.17-.64-.26-.55,2.02-1.1,4.04-1.66,6.07.22.08.43.18.64.26.55-2.02,1.11-4.04,1.66-6.06ZM71.33,287.81c-1.71,1.05-1.72,1.1-.8,2.54,1.08-.38,1.16-1.21.8-2.54ZM98.26,224.44c-1.05,1.03-1.27,2.42-1.12,3.97.91-1.1,1.36-2.39,1.12-3.97ZM86.13,260.83c-.81.39-1.46.85-.84,2.4.38-1.08.61-1.74.84-2.4ZM99.49,220.32c-.15-.09-.29-.16-.43-.25-.13.23-.33.43-.37.69-.05.26.05.57.08.85.12.02.24.04.36.05.12-.45.24-.9.37-1.34ZM150.76,216.59c-.12-.1-.23-.2-.34-.3-.38.38-.75.76-1.13,1.14.14.12.27.25.41.36.35-.41.7-.81,1.05-1.21ZM93.24,240.9c.1.04.19.09.29.13.13-.21.32-.39.38-.63.07-.25.01-.54,0-1.25-.36.55-.55.75-.64.99-.07.23-.03.51-.04.76Z"/><path class="cls-1" d="M257.46,171.03c-.62-.25-.96-.39-1.38-.57-.91,2.63-1.75,5.13-2.63,7.62-.94,2.61-1.84,5.22-3.56,7.43-.91,1.17-1.15,2.89-1.64,4.38-2.02,6.19-4.13,12.35-6,18.61-2.7,9.08-5.23,18.24-7.86,27.35-.37,1.3-.88,2.56-1.45,3.77-1.97,4.14-2.53,8.83-3.44,13.37-.75,3.77-1.18,7.65-1.72,11.49-.24,1.75-1.72,2.26-3.28.93-1.68-1.42-3.6-2.09-5.52-2.91-2.01-.86-3.92-2.07-5.8-3.26-.42-.27-.72-1.1-.74-1.64-.07-1.57-.12-3.17.1-4.68,1.64-11.23,4.34-22.08,7.42-32.81.65-2.27,1.31-4.56,1.94-6.84.13-.47.13-.99.23-1.71-.61.08-1.04.08-1.41.19-4.47,1.4-8.96,2.77-13.38,4.26-1.72.58-3.3,1.43-4.96,2.12-.66.28-1.36.51-2.06.72-1.78.51-2.95,1.53-3.55,3.32-1.46,4.41-3.29,8.65-4.64,13.11-2.01,6.66-3.74,13.43-5.59,20.16-.49,1.8-.98,3.61-1.5,5.4-.27.92-.3,1.75.23,2.82.38.76.36,1.84.11,2.57-.72,2.03-1.44,4.02-.61,6.44-1.46.97-3.09.55-4.38-.46-1.68-1.33-3.5-2.19-5.39-2.92-2.33-.91-4.36-2.3-6.18-4-1.29-1.21-1.72-2.8-1.57-4.31.28-2.92.53-5.88,1.13-8.7,2.36-11.08,5.73-21.74,9.28-32.32.59-1.76,1.17-3.54,1.9-5.23.51-1.19.18-2.07-.91-3.04-1.09-.98-2.07-2.08-3.09-3.12,1.5-2.88,3.43-4.9,6.74-5.35,1.16-.16,1.74-.83,2.11-1.86,2.1-5.99,4.22-11.98,6.41-17.93,1.83-4.94,3.76-9.83,5.66-14.73.11-.27.2-.55.37-.76,3.16-3.84,4.7-8.66,6.81-13.13,2.85-6.01,5.41-12.19,8.11-18.28.35-.78.74-1.54,1.24-2.21.99-1.34,2.28-1.48,4.15-.7.66.27,1.37.34,2.28.55.45,1.22.94,2.55,1.42,3.87.63,1.75,1.36,3.37,3.36,4.27,1.16.52,1.5,1.69,1.85,2.75.38,1.17,1.01,2.24,1.61,3.35.95,1.77,2.16,3.79,1.01,5.8-1.47,2.56-2.69,5.29-4,7.95-.88,1.77-1.73,3.56-2.6,5.34-.12.25-.18.72-.36.73-1.9.1-1.7,1.82-2.18,2.95-3,7.06-5.92,14.17-8.89,21.24-.45,1.07-.98,2.1-1.47,3.15.12.13.25.26.37.4,1.65-.31,3.38-.47,4.93-.97,4.24-1.4,8.41-2.95,12.61-4.42,1.61-.56,2.47-1.65,3.01-3.27,5.53-16.56,11.19-33.06,16.7-49.64,2.05-6.18,4.06-12.38,6.91-18.17.63-1.27,1.06-2.73,2.01-3.71,1.34-1.38,2.93-2.64,4.7-3.51,2.15-1.06,5.76,1.61,5.73,4.12-.01,1.23-.32,2.4-.5,3.64.43.11.68.24.87.21.72-.16,1.47-.54,2.19.2,1,1.03,2.52,1.6,2.84,3.26.18.92.72,1.89,1.28,2.73.52.77.62,1.59.96,2.28.84,1.75.34,3.01-.28,4.29-.61,1.25-1.38,2.42-2.09,3.61-.22.36-.52.67-.7,1.05-2.15,4.69-4.55,9.25-6.12,14.26-1.61,5.13-3.49,10.13-5.31,15.16-.48,1.34-1.19,2.56-1.85,3.94Z"/><path class="cls-1" d="M340.51,89.12c-.31-.61-.4-1.4-.88-2.05-.52-.73-1.03-1.58-1.19-2.44-.3-1.55-1.72-1.86-2.63-2.71-.67-.6-1.35-.12-2.03.15-.17.07-.4-.03-.8-.06.17-1.23.45-2.41.47-3.6.02-2.43-3.32-4.46-5.31-3.09-1.63,1.12-3.11,2.58-4.35,4.14-.88,1.09-1.28,2.58-1.86,3.9-2.65,6.05-4.5,12.36-6.4,18.66-5.1,16.9-10.33,33.76-15.45,50.64-.38,1.25-.93,2.24-1.82,2.99-.37.76-.83,1.44-1.37,2.11l-4.33,15.76c0,.62.07,1.23.22,1.83.23.96.15,1.81-.14,2.54-.05.47-.07.84-.16,1.2-.58,2.31-1.19,4.62-1.8,6.93-2.84,10.85-5.35,21.78-6.86,32.9-.21,1.49-.15,3.03-.1,4.54.03.52.31,1.28.69,1.47,1.74.86,3.51,1.74,5.37,2.26,1.77.49,3.55.84,5.1,1.95,1.45,1.04,2.82.33,3.04-1.41.49-3.8.88-7.63,1.58-11.39.84-4.54,1.35-9.17,3.18-13.48.54-1.25,1-2.55,1.35-3.87,2.44-9.23,4.77-18.49,7.27-27.7,1.73-6.35,3.68-12.64,5.55-18.95.45-1.52.67-3.22,1.51-4.49,1.6-2.41,2.43-5.07,3.29-7.75.82-2.54,1.6-5.1,2.44-7.79.4.1.71.18,1.28.33.6-1.44,1.28-2.74,1.71-4.1,1.69-5.15,3.43-10.29,4.92-15.51,1.45-5.1,3.66-9.88,5.66-14.76.16-.4.45-.74.64-1.13.66-1.27,1.37-2.51,1.93-3.82.58-1.34,1.04-2.63.26-4.2Z"/><path class="cls-1" d="M274.78,198.15c1.38-.27,2.32.34,3.13,1.72.55.95,1.31,1.71,2.35,1.8,1.26.11,1.69,1.16,2,2.36.37,1.39.63,2.83,1.16,4.15.57,1.47,1.38,2.82,2.08,4.22.46.92.88,1.85,1.34,2.76.46.9.89,1.84,1.41,2.7.91,1.49,1.43,1.7,2.76.99,1.31-.71,2.65-1.42,3.83-2.38,5.26-4.3,11.22-7.28,16.41-11.74,3.03-2.6,6.81-3.88,10.57-5,2.95-.86,5.43-.17,7.63,2.57.52.64,1.13,1.25,1.8,1.62.05.03.09.07.15.1-2.66,6.42-7.91,11.36-13.62,15.89-5.33,2.18-10.3,5.31-15.29,9.01-1.71.94-3.26,2.18-4.58,3.64-2.87,2-5.16,4.88-6.4,8.13-.69-.18-2.12-.32-.41.39-.65-.24-1.28-.53-1.89-.83.03-.12-1.36-1.23-2.04-1.79-.18-.24-.51-.66-1-1.28-1.53-2.24-2.89-4.53-4.18-6.91-.47-.86-1.04-1.64-1.68-2.33.13,0,.26,0,.39.01-.1-.57-.08-.83-.17-1.02-2.27-4.75-4.54-9.49-6.81-14.24-.34-.69-.73-1.4-.87-2.15-.74-3.67-.19-7.32-.31-10.98,0-.56.32-1.11.51-1.71.68.13,1.24.4,1.73.3Z"/><path class="cls-2" d="M257.84,267.68c0-12.48,9.75-21.85,21.84-21.85s22.24,9.37,22.24,21.85-10.14,22.23-22.24,22.23-21.84-9.36-21.84-22.23Z"/></g></svg>