<?xml version="1.0" encoding="UTF-8"?>
<svg xmlns="http://www.w3.org/2000/svg" id="Layer_2" viewBox="0 0 300 300">
  <defs>
    <style>.cls-1{fill:#fff;}.cls-2{fill:#711fff;}</style>
  </defs>
  <g id="Symbol-Purple">
    <g>
      <rect class="cls-2" width="300" height="300" rx="52.59" ry="52.59"></rect>
      <g>
        <path class="cls-1" d="M105.86,51.7c-6.89-6.89-16.75-10.84-27.08-10.84-10.33,0-20.19,3.95-27.07,10.84-14.92,14.93-14.92,39.22,0,54.15L194.16,248.3c7.2,7.21,16.82,11.18,27.07,11.18s19.87-3.97,27.07-11.18c7.2-7.21,11.18-16.82,11.18-27.08s-3.97-19.86-11.18-27.07L105.86,51.7ZM243.14,221.22c0,5.89-2.27,11.4-6.39,15.52-3.91,3.91-9.57,6.16-15.52,6.16s-11.6-2.25-15.51-6.16L63.26,94.29c-8.55-8.56-8.55-22.48,0-31.04,4.13-4.12,9.64-6.39,15.53-6.39s11.39,2.27,15.51,6.39L236.74,205.7c4.13,4.12,6.39,9.63,6.39,15.52Z"></path>
        <path class="cls-1" d="M220.64,118.2c21.42,0,38.85-17.42,38.85-38.84s-17.43-38.84-38.85-38.84-38.84,17.42-38.84,38.84,17.42,38.84,38.84,38.84Zm0-61.33c12.41,0,22.5,10.09,22.5,22.5s-10.1,22.5-22.5,22.5-22.49-10.09-22.49-22.5,10.09-22.5,22.49-22.5Z"></path>
        <path class="cls-1" d="M79.37,181.79c-21.42,0-38.84,17.42-38.84,38.84s17.42,38.84,38.84,38.84,38.84-17.42,38.84-38.84-17.42-38.84-38.84-38.84Zm22.5,38.84c0,12.41-10.1,22.5-22.5,22.5s-22.49-10.09-22.49-22.5,10.09-22.49,22.49-22.49,22.5,10.09,22.5,22.49Z"></path>
      </g>
    </g>
  </g>
</svg>
