<svg viewBox="0 0 24 24" fill="currentColor" xmlns="http://www.w3.org/2000/svg">
  <path d="M5 2h10l4 4v14a2 2 0 0 1-2 2H5a2 2 0 0 1-2-2V4a2 2 0 0 1 2-2Zm10 5h3.5L15 3.5V7Z"/>
  <path d="M8.2 13c0-1 .8-1.8 2-1.8.6 0 1.2.2 1.6.6l-.5.7c-.3-.3-.6-.4-1-.4-.6 0-1 .4-1 .9 0 .6.4 1 .9 1 .4 0 .7-.1 1-.4l.5.6c-.4.4-1 .6-1.7.6-1.1 0-2-.8-2-1.8Zm3.9 1.8.3-.8c.3.2.7.4 1.1.4.3 0 .5-.1.5-.3 0-.6-1.8-.2-1.8-1.4 0-.7.6-1.2 1.4-1.2.4 0 .9.1 1.3.3l-.3.8c-.3-.1-.7-.3-1-.3-.2 0-.4.1-.4.3 0 .5 1.8.2 1.8 1.4 0 .7-.6 1.2-1.5 1.2-.5 0-1.1-.1-1.4-.3Zm3.4.1c-.5-.2-.8-.7-.8-1.3 0-.9.6-1.6 1.6-1.6.5 0 .9.2 1.3.5l-.4.6c-.2-.2-.4-.3-.7-.3-.3 0-.6.2-.6.6 0 .4.3.6.6.6.3 0 .6-.1.8-.3l.4.5c-.3.4-.7.6-1.3.6-.3 0-.7-.1-.9-.3Z"/>
</svg>
