<svg viewBox="0 0 24 24" fill="currentColor" xmlns="http://www.w3.org/2000/svg">
  <path d="M5 2h10l4 4v14a2 2 0 0 1-2 2H5a2 2 0 0 1-2-2V4a2 2 0 0 1 2-2Zm10 5h3.5L15 3.5V7Z"/>
  <path d="M6.8 12h1.4l1 1.5 1-1.5h1.4l-1.7 2.4 1.7 2.4h-1.4l-1-1.5-1 1.5H6.8l1.7-2.4-1.7-2.4Z"/>
  <path d="M12.8 12h1.2v4h2v1h-3.2v-5Z"/>
  <path d="M17 12h1.8c.8 0 1.2.4 1.2 1s-.3 1-.8 1.2c.6.2.8.6.8 1.2 0 .8-.6 1.3-1.6 1.3H17v-4.7Zm1.2 1.7c.3 0 .5-.2.5-.5s-.2-.4-.5-.4h-.6v.9h.6Zm.1 1.8c.3 0 .5-.2.5-.5s-.2-.5-.5-.5h-.7v1h.7Z"/>
</svg>
