<?xml version="1.0" encoding="UTF-8"?><svg id="Layer_2" xmlns="http://www.w3.org/2000/svg" viewBox="0 0 84.22 98.78"><defs><style>.cls-1{fill:#fff;stroke-width:0px;}</style></defs><g id="Time_-_Active"><path class="cls-1" d="m42.11,92.16c-9.81,0-18.69-3.97-25.11-10.39-6.42-6.42-10.39-15.29-10.39-25.11s3.97-18.69,10.39-25.11c6.42-6.42,15.3-10.39,25.11-10.39s18.69,3.97,25.11,10.39c6.42,6.42,10.39,15.3,10.39,25.11s-3.97,18.68-10.39,25.11c-6.42,6.42-15.3,10.39-25.11,10.39m33.01-63.8l5.88-5.88c-.73-.83-1.49-1.64-2.26-2.42-.78-.78-1.57-1.53-2.39-2.25l-6.86,6.86-1.08-.87c-3.72-3-7.91-5.31-12.36-6.88-4.45-1.57-9.16-2.39-13.94-2.39h0c-11.63,0-22.16,4.72-29.78,12.34C4.71,34.51,0,45.04,0,56.67s4.71,22.17,12.33,29.79c7.61,7.61,18.14,12.32,29.78,12.32h0c3.95,0,7.88-.55,11.66-1.64,3.78-1.09,7.4-2.7,10.75-4.8,3.36-2.11,6.39-4.67,9-7.6,2.62-2.93,4.82-6.22,6.54-9.79h0c1.72-3.58,2.91-7.35,3.57-11.22.66-3.87.77-7.84.32-11.78-.45-3.94-1.45-7.77-2.95-11.4-1.51-3.64-3.52-7.05-5.99-10.14l-.86-1.08.97-.97Zm-36.32,31.61h6.62v-26.02h-6.62v26.02ZM55.12,0h-26.02v6.62h26.02V0Zm2.45,77.68l4.68-4.68-18.4-18.4-4.68,4.68,18.4,18.4Z"/></g></svg>