<?xml version="1.0" encoding="UTF-8"?><svg id="Layer_2" xmlns="http://www.w3.org/2000/svg" viewBox="0 0 121.1 82.73"><defs><style>.cls-1{fill:#711fff;}</style></defs><g id="Video_Help-Idle"><path class="cls-1" d="M43.29,74.5l5.62,3.46-5.62,3.41v-6.86ZM66.01,70.83c-1.43,0-2.54-.53-3.05-1.46-.17-.32-.27-.68-.27-1.03s.09-.71.27-1.03c.5-.93,1.58-1.46,2.96-1.46h5.15c1.35,0,2.67-.26,3.91-.78,1.24-.52,2.36-1.27,3.33-2.23s1.72-2.08,2.23-3.33c.52-1.24.78-2.56.78-3.91V16.56c0-1.35-.26-2.66-.78-3.9-.52-1.24-1.27-2.36-2.23-3.33-.97-.97-2.09-1.72-3.33-2.23-1.24-.52-2.55-.78-3.9-.78H16.56c-1.35,0-2.67.26-3.9.78-1.24.51-2.36,1.27-3.33,2.23s-1.72,2.09-2.23,3.33c-.52,1.24-.78,2.56-.78,3.91v39.05c0,1.35.26,2.66.78,3.9.52,1.24,1.27,2.36,2.23,3.33.96.96,2.08,1.71,3.33,2.23,1.24.52,2.55.78,3.91.78h8.59c1.35,0,2.41.53,2.9,1.46.17.32.26.67.26,1.03s-.09.7-.26,1.03c-.5.93-1.59,1.46-2.99,1.46h-8.49c-2,0-3.96-.39-5.8-1.16-1.86-.77-3.52-1.89-4.94-3.31-1.42-1.42-2.54-3.09-3.31-4.94-.77-1.85-1.16-3.8-1.16-5.8V16.56c0-2,.39-3.96,1.16-5.8.77-1.86,1.89-3.52,3.31-4.94,1.42-1.42,3.09-2.54,4.94-3.31,1.85-.77,3.8-1.16,5.8-1.16h54.5c2,0,3.96.39,5.8,1.16,1.85.77,3.51,1.88,4.94,3.31,1.43,1.42,2.54,3.08,3.31,4.94.77,1.85,1.16,3.8,1.16,5.8v2.22l22.19-11.68c.97-.53,1.89-.94,2.74-1.2.86-.27,1.68-.41,2.44-.41.55,0,1.05.06,1.52.18.48.12.94.31,1.35.56.42.25.8.55,1.15.92.34.36.64.78.9,1.24.37.68.66,1.5.85,2.43.19.93.29,1.99.29,3.16.08,14.24.04,25.8.02,34.24l-.02,9.66c0,1.16-.1,2.22-.29,3.15-.19.93-.48,1.75-.85,2.43-.25.46-.56.88-.9,1.24-.34.36-.73.67-1.15.92-.42.25-.87.43-1.36.56-.47.12-.97.18-1.48.18-.79,0-1.61-.14-2.47-.41-.85-.26-1.77-.67-2.73-1.19-5.66-3.11-11.54-6.16-17.22-9.11l-4.98-2.59v2.55c0,2.01-.39,3.96-1.16,5.81-.77,1.86-1.89,3.52-3.31,4.94-1.43,1.43-3.1,2.54-4.94,3.31s-3.8,1.16-5.8,1.16h-5.05ZM113.6,10.44c-.31.01-.67.09-1.11.25-.46.16-1.01.42-1.62.75-5.84,2.78-11.95,6.1-17.86,9.31-2.14,1.16-4.27,2.32-6.37,3.44l-.36.19v23.09l.36.19c2.12,1.13,4.25,2.27,6.38,3.42,5.87,3.16,11.95,6.43,17.88,9.34.58.32,1.13.57,1.59.74.44.16.81.24,1.11.25h.42s.2-.35.2-.35c.17-.32.3-.72.39-1.25.09-.56.14-1.21.15-1.95,0-5.69.02-11.38.03-17.08l.02-6.99c0-5.85,0-12.49-.05-19.8,0-.73-.05-1.39-.15-1.95-.09-.51-.22-.94-.39-1.25l-.2-.37h-.42ZM44.12,67.81c-.35,0-.71-.09-1.03-.27-.93-.51-1.46-1.62-1.46-3.04v-9.32l.07-.23c.04-.23.09-.45.17-.65.16-.43.4-.8.73-1.13.32-.32.67-.56,1.07-.73.18-.08.37-.14.57-.18l.33-.08.4-.03c1.25-.1,2.46-.43,3.59-.99,1.13-.55,2.14-1.3,3-2.24.86-.93,1.52-2,1.98-3.17.45-1.17.68-2.4.68-3.67,0-1.34-.26-2.64-.76-3.86-.51-1.23-1.25-2.33-2.2-3.28-1.91-1.91-4.44-2.96-7.14-2.96-1.28,0-2.53.24-3.71.7-1.18.46-2.25,1.14-3.19,2.02-.65.61-1.22,1.3-1.69,2.07-.47.76-.84,1.58-1.09,2.43-.27.89-.71,1.61-1.28,2.06-.44.35-.95.54-1.47.54-.18,0-.36-.02-.53-.06-.67-.19-1.15-.58-1.43-1.13-.33-.64-.38-1.47-.15-2.42l.06-.22c.37-1.29.92-2.55,1.63-3.71.71-1.17,1.58-2.23,2.58-3.17,1.4-1.3,3-2.32,4.75-3.01,1.76-.69,3.62-1.05,5.52-1.05s3.93.38,5.76,1.14c1.84.76,3.49,1.86,4.89,3.27s2.51,3.05,3.27,4.89c.76,1.83,1.14,3.77,1.14,5.76,0,1.88-.35,3.72-1.03,5.47-.68,1.75-1.68,3.34-2.96,4.73-1.15,1.25-2.5,2.3-4.01,3.1-1.28.68-2.65,1.18-4.06,1.47l-.54.11v7.64c0,1.38-.53,2.45-1.45,2.95-.32.17-.68.26-1.03.26Z"/><path class="cls-1" d="M71.07,2.02c1.91,0,3.78.37,5.54,1.11,1.77.73,3.36,1.8,4.72,3.16,1.36,1.36,2.43,2.95,3.17,4.72.73,1.76,1.11,3.63,1.11,5.55v3.34l1.98-1.04,21.23-11.17c.92-.51,1.79-.89,2.6-1.14.8-.25,1.55-.38,2.26-.38.47,0,.92.05,1.33.16.42.11.82.27,1.18.49.36.21.7.48,1,.8.3.32.57.69.79,1.1.34.62.6,1.37.78,2.24.18.89.27,1.91.28,3.03.07,14.16.04,25.67.02,34.08v.49s-.02,9.32-.02,9.32c0,1.12-.1,2.14-.28,3.02-.18.87-.44,1.62-.78,2.24-.23.41-.49.78-.8,1.11-.29.31-.63.58-1,.8-.36.21-.76.38-1.18.48-.41.11-.86.16-1.35.16h0c-.69,0-1.44-.13-2.24-.38-.81-.25-1.68-.64-2.61-1.14-5.67-3.11-11.54-6.16-17.23-9.11-1.34-.69-2.67-1.39-4-2.08l-1.97-1.03v3.67c0,1.92-.37,3.78-1.11,5.55-.74,1.77-1.8,3.36-3.16,4.72-1.37,1.37-2.96,2.43-4.73,3.17-1.76.73-3.63,1.11-5.54,1.11h-5.05c-1.18,0-2.07-.4-2.46-1.1-.12-.22-.19-.47-.19-.71s.06-.48.19-.71c.38-.7,1.24-1.1,2.37-1.1h5.15c1.44,0,2.84-.28,4.16-.83,1.32-.55,2.52-1.35,3.55-2.38,1.03-1.03,1.83-2.22,2.38-3.55.55-1.32.83-2.72.83-4.16V16.56c0-1.44-.28-2.84-.83-4.16-.55-1.32-1.35-2.52-2.38-3.55-1.03-1.03-2.22-1.83-3.55-2.38-1.32-.55-2.72-.83-4.16-.83H16.56c-1.44,0-2.84.28-4.16.83-1.32.55-2.52,1.35-3.55,2.38-1.03,1.03-1.83,2.22-2.38,3.55-.55,1.32-.83,2.72-.83,4.16v39.05c0,1.44.28,2.84.83,4.16.55,1.32,1.35,2.52,2.38,3.54,1.02,1.03,2.21,1.83,3.55,2.38,1.32.55,2.72.83,4.16.83h8.59c1.09,0,1.93.4,2.3,1.1.12.22.18.46.18.71s-.06.48-.18.71c-.38.7-1.25,1.1-2.39,1.1h-8.49c-1.91,0-3.78-.37-5.55-1.11-1.77-.74-3.36-1.8-4.73-3.16s-2.43-2.95-3.16-4.73c-.73-1.76-1.11-3.63-1.11-5.55V16.56c0-1.91.37-3.78,1.11-5.55.74-1.77,1.8-3.36,3.16-4.73s2.95-2.43,4.73-3.16c1.76-.73,3.63-1.11,5.55-1.11h54.5M110.58,10.83c-5.87,2.8-11.98,6.11-17.88,9.32-2.15,1.16-4.28,2.32-6.39,3.45l-.71.38v23.9l.71.38c2.12,1.13,4.25,2.27,6.38,3.42,5.87,3.16,11.93,6.43,17.87,9.34.63.35,1.2.61,1.69.78.51.18.94.27,1.31.29l.84.03.4-.74c.2-.38.35-.86.46-1.46.1-.59.15-1.28.16-2.06,0-5.63.02-11.26.03-16.88l.02-7.18c0-6.91-.01-13.38-.05-19.8,0-.77-.05-1.47-.16-2.06-.1-.59-.25-1.07-.46-1.46l-.4-.74-.84.03c-.38.01-.81.11-1.31.29-.49.17-1.06.44-1.69.78M44.12,27.68c1.91,0,3.76.37,5.5,1.09,1.76.73,3.33,1.78,4.67,3.12,1.34,1.34,2.4,2.92,3.12,4.68.72,1.75,1.09,3.6,1.09,5.5,0,1.8-.33,3.56-.98,5.22-.65,1.67-1.6,3.19-2.82,4.52-1.1,1.2-2.39,2.19-3.83,2.96-1.22.65-2.53,1.12-3.87,1.4l-1.08.22v8.19c0,1.12-.4,1.98-1.1,2.36-.22.12-.47.18-.71.18s-.48-.06-.71-.19c-.7-.38-1.11-1.28-1.11-2.45v-9.08l.06-.36c.03-.19.08-.37.14-.53.13-.34.31-.63.57-.9.25-.26.53-.45.85-.58.14-.06.3-.11.46-.15l.28-.07.35-.03c1.34-.11,2.62-.46,3.83-1.05,1.21-.59,2.28-1.39,3.2-2.39.91-.99,1.62-2.13,2.11-3.38.48-1.25.73-2.56.73-3.92,0-1.43-.27-2.82-.81-4.12-.54-1.31-1.33-2.48-2.34-3.49-2.03-2.03-4.74-3.16-7.62-3.16-1.37,0-2.7.25-3.96.75-1.26.5-2.41,1.22-3.4,2.15-.7.65-1.3,1.39-1.81,2.2-.5.81-.89,1.68-1.16,2.59-.23.76-.59,1.35-1.06,1.72-.32.25-.69.39-1.05.39-.12,0-.25-.02-.36-.04h-.06c-.29-.1-.69-.3-.95-.79-.25-.49-.28-1.16-.09-1.93l.05-.19c.35-1.25.88-2.44,1.56-3.56.68-1.12,1.51-2.14,2.47-3.03,1.33-1.24,2.86-2.21,4.54-2.88,1.68-.66,3.45-1,5.27-1M43.96,75.75l3.65,2.21-3.65,2.21v-4.42M71.07.67H16.56c-2.14,0-4.19.43-6.06,1.21-1.95.81-3.7,1.99-5.16,3.46s-2.65,3.22-3.46,5.16c-.78,1.87-1.21,3.92-1.21,6.06v39.05c0,2.14.43,4.19,1.21,6.06.81,1.95,1.99,3.7,3.46,5.16s3.22,2.65,5.16,3.46c1.87.78,3.92,1.21,6.06,1.21h8.49c1.84,0,3.04-.8,3.58-1.82.23-.43.34-.89.34-1.35s-.11-.92-.34-1.34c-.54-1.02-1.72-1.81-3.49-1.81h-8.59c-1.29,0-2.52-.26-3.65-.73-1.17-.49-2.23-1.2-3.11-2.09-.89-.89-1.6-1.94-2.09-3.11-.47-1.12-.73-2.35-.73-3.65V16.56c0-1.29.26-2.52.73-3.65.48-1.17,1.2-2.22,2.09-3.11.89-.89,1.94-1.6,3.11-2.09,1.12-.47,2.35-.73,3.65-.73h54.5c1.29,0,2.52.26,3.65.73,1.17.48,2.22,1.2,3.11,2.09.89.89,1.6,1.94,2.09,3.11.47,1.12.72,2.35.72,3.65v39.05c0,1.29-.26,2.52-.72,3.65-.48,1.17-1.2,2.22-2.09,3.11-.89.89-1.94,1.6-3.11,2.09-1.12.47-2.35.73-3.65.73h-5.15c-1.8,0-3,.79-3.55,1.81-.23.43-.35.89-.35,1.35s.12.93.35,1.36c.56,1.01,1.77,1.8,3.64,1.8h5.05c2.14,0,4.19-.43,6.06-1.21,1.94-.81,3.69-1.99,5.16-3.46,1.46-1.46,2.65-3.22,3.46-5.16.78-1.87,1.21-3.92,1.21-6.06v-1.44c7.09,3.69,14.24,7.36,21.2,11.18,1,.55,1.95.97,2.85,1.25.92.29,1.8.44,2.63.44.01,0,.02,0,.04,0,.57,0,1.13-.07,1.65-.2.55-.14,1.06-.35,1.53-.63.48-.28.91-.63,1.29-1.04.38-.4.71-.86,1-1.38.41-.74.71-1.62.92-2.62.2-.97.3-2.07.31-3.29l.02-9.32c.02-8.29.06-20.14-.02-34.58,0-1.22-.11-2.32-.31-3.29-.2-1.01-.51-1.88-.92-2.62-.28-.52-.62-.98-1-1.38-.39-.41-.82-.76-1.29-1.04-.47-.28-.98-.49-1.53-.63-.53-.13-1.08-.2-1.67-.2h-.02c-.83,0-1.71.15-2.63.44-.9.28-1.85.7-2.85,1.25l-21.2,11.16v-1.11c0-2.14-.43-4.19-1.21-6.06-.81-1.94-1.99-3.7-3.46-5.16-1.47-1.46-3.22-2.65-5.16-3.46-1.87-.78-3.92-1.21-6.06-1.21h0ZM113.63,60.74c-.23,0-.54-.08-.91-.21-.43-.15-.94-.39-1.52-.71-8.05-3.94-16.23-8.49-24.24-12.75v-22.28c7.95-4.25,16.28-8.96,24.24-12.75.58-.32,1.09-.56,1.52-.71.37-.13.68-.2.91-.21.13.25.24.6.32,1.05.09.51.13,1.12.14,1.84.04,7.3.05,13.94.05,19.79-.02,8.02-.04,16.04-.05,24.06,0,.71-.05,1.33-.14,1.84-.08.45-.18.8-.32,1.04h0ZM44.12,26.33c-2.03,0-3.98.39-5.77,1.09-1.85.73-3.53,1.81-4.97,3.15-1.04.97-1.95,2.09-2.7,3.31-.74,1.2-1.32,2.51-1.71,3.9l-.06.22c-.3,1.22-.17,2.18.2,2.89.4.78,1.07,1.25,1.77,1.45l.1.02c.23.06.46.08.69.08.65,0,1.31-.22,1.88-.68.64-.5,1.19-1.3,1.51-2.39.24-.81.59-1.57,1.02-2.27.44-.71.98-1.36,1.58-1.93.86-.8,1.87-1.45,2.98-1.88,1.07-.42,2.24-.65,3.46-.65,2.6,0,4.96,1.05,6.66,2.76.87.87,1.57,1.91,2.05,3.06.46,1.11.71,2.32.71,3.6,0,1.21-.23,2.37-.64,3.43-.43,1.1-1.06,2.1-1.85,2.95-.79.86-1.74,1.57-2.8,2.09-1.03.5-2.16.82-3.35.92l-.82.07v.06c-.23.05-.46.13-.67.22-.48.2-.91.49-1.29.88-.39.4-.68.85-.88,1.37-.09.25-.16.5-.2.78h-.08v9.66c0,1.87.79,3.08,1.81,3.63.43.23.89.35,1.35.35s.92-.12,1.35-.35c1.01-.55,1.81-1.74,1.81-3.54v-7.09c1.5-.31,2.92-.83,4.24-1.53,1.58-.84,2.99-1.94,4.18-3.24,1.31-1.43,2.37-3.1,3.09-4.94.69-1.77,1.07-3.7,1.07-5.71,0-2.13-.42-4.16-1.2-6.02-.8-1.93-1.97-3.67-3.42-5.11s-3.18-2.61-5.11-3.42c-1.86-.77-3.89-1.19-6.02-1.19h0ZM43.26,73.85c-.33,0-.65.27-.65.65v6.91h0c0,.38.31.65.65.65.13,0,.26-.04.38-.13l5.71-3.46c.35-.26.35-.78,0-1.04l-5.71-3.46c-.12-.09-.25-.13-.38-.13h0Z"/></g></svg>