<?xml version="1.0" encoding="UTF-8"?><svg id="Layer_2" xmlns="http://www.w3.org/2000/svg" viewBox="0 0 119.75 81.39"><defs><style>.cls-1{fill:#fff;}</style></defs><g id="Video_Help_-_White_-_Idle"><path class="cls-1" d="M86.28,46.39c8.01,4.26,16.19,8.81,24.24,12.75.58.32,1.09.56,1.52.71.37.13.68.2.91.21.13-.25.24-.6.32-1.04.09-.51.13-1.13.14-1.84,0-8.02.03-16.04.05-24.06,0-5.85,0-12.49-.05-19.79,0-.71-.05-1.33-.14-1.84-.08-.45-.18-.8-.32-1.05-.24,0-.54.08-.91.21-.43.15-.94.39-1.52.71-7.97,3.79-16.29,8.5-24.24,12.75v22.28ZM28.3,37.11c.39-1.38.97-2.7,1.71-3.9.75-1.22,1.66-2.34,2.7-3.31,1.43-1.34,3.12-2.42,4.97-3.15,1.79-.7,3.73-1.09,5.77-1.09s4.16.42,6.02,1.19c1.93.8,3.67,1.97,5.11,3.42,1.45,1.45,2.62,3.18,3.42,5.11.77,1.86,1.2,3.89,1.2,6.02,0,2.01-.38,3.94-1.07,5.71-.72,1.84-1.77,3.51-3.09,4.94-1.19,1.3-2.61,2.39-4.18,3.24-1.32.7-2.74,1.23-4.24,1.53v7.09c0,1.8-.79,3-1.81,3.54-.42.23-.89.35-1.35.35s-.92-.12-1.35-.35c-1.02-.55-1.81-1.77-1.81-3.63v-9.66h.08c.05-.27.11-.53.2-.78.19-.52.49-.97.88-1.37.38-.39.82-.68,1.29-.88.22-.09.44-.16.67-.22v-.06l.82-.07c1.19-.1,2.32-.42,3.35-.92,1.06-.51,2-1.23,2.8-2.09.79-.85,1.42-1.86,1.85-2.95.41-1.06.64-2.22.64-3.43,0-1.28-.25-2.5-.71-3.6-.48-1.15-1.18-2.19-2.05-3.06-1.71-1.71-4.06-2.76-6.66-2.76-1.23,0-2.4.23-3.46.65-1.11.44-2.12,1.08-2.98,1.88-.6.56-1.14,1.21-1.58,1.93-.43.7-.78,1.46-1.02,2.27-.32,1.09-.87,1.89-1.51,2.39-.78.62-1.71.81-2.57.59l-.1-.02c-.7-.2-1.37-.67-1.77-1.45-.37-.71-.5-1.67-.2-2.89l.06-.22ZM24.38,70.83h-8.49c-2.14,0-4.19-.43-6.06-1.21-1.95-.81-3.7-1.99-5.16-3.46-1.46-1.46-2.65-3.22-3.46-5.16-.78-1.87-1.21-3.92-1.21-6.06V15.89c0-2.14.43-4.19,1.21-6.06.81-1.95,1.99-3.7,3.46-5.16,1.46-1.46,3.22-2.65,5.16-3.46,1.87-.78,3.92-1.21,6.06-1.21h54.5c2.14,0,4.19.43,6.06,1.21,1.94.81,3.69,1.99,5.16,3.46,1.47,1.46,2.65,3.22,3.46,5.16.78,1.87,1.21,3.92,1.21,6.06v1.11l21.2-11.16c1-.55,1.95-.97,2.85-1.25.92-.29,1.8-.44,2.63-.44.59,0,1.16.07,1.69.2.55.14,1.06.35,1.53.63.48.28.91.63,1.29,1.04.38.4.71.86,1,1.38.41.74.72,1.62.92,2.62.2.97.3,2.07.31,3.29.08,14.44.04,26.29.02,34.58l-.02,9.32c0,1.22-.11,2.32-.31,3.29-.2,1.01-.51,1.88-.92,2.62-.28.51-.61.97-1,1.38-.38.41-.82.76-1.29,1.04-.47.28-.98.49-1.53.63-.53.14-1.1.2-1.69.2-.83,0-1.71-.15-2.63-.44-.9-.28-1.85-.7-2.85-1.25-6.96-3.82-14.12-7.49-21.2-11.18v1.44c0,2.14-.43,4.19-1.21,6.06-.81,1.94-1.99,3.7-3.46,5.16-1.47,1.46-3.22,2.65-5.16,3.46-1.87.78-3.92,1.21-6.06,1.21h-5.05c-1.87,0-3.09-.79-3.64-1.8-.23-.43-.35-.89-.35-1.36s.12-.92.35-1.35c.55-1.02,1.75-1.81,3.55-1.81h5.15c1.29,0,2.52-.26,3.65-.73,1.17-.48,2.22-1.2,3.11-2.09.89-.89,1.6-1.94,2.09-3.11.47-1.12.73-2.35.73-3.65V15.89c0-1.29-.26-2.52-.73-3.65-.48-1.17-1.2-2.22-2.09-3.11-.89-.89-1.94-1.6-3.11-2.09-1.12-.47-2.35-.73-3.65-.73H15.89c-1.29,0-2.52.26-3.65.73-1.17.48-2.22,1.2-3.11,2.09-.89.89-1.6,1.94-2.09,3.11-.47,1.12-.73,2.35-.73,3.65v39.05c0,1.29.26,2.52.73,3.65.48,1.17,1.2,2.22,2.09,3.11.88.89,1.94,1.6,3.11,2.09,1.12.47,2.36.73,3.65.73h8.59c1.77,0,2.95.8,3.49,1.81.23.42.34.88.34,1.34s-.11.92-.34,1.35c-.55,1.02-1.74,1.82-3.58,1.82ZM41.94,80.74v-6.91c0-.53.6-.84,1.03-.52l5.71,3.46c.35.26.35.78,0,1.04l-5.71,3.46c-.43.32-1.03.01-1.03-.52h0Z"/></g></svg>