<?xml version="1.0" encoding="UTF-8"?><svg id="Layer_2" xmlns="http://www.w3.org/2000/svg" viewBox="0 0 119.75 84.55"><defs><style>.cls-1{fill:#711fff;}</style></defs><g id="Video_Help-Active"><path class="cls-1" d="M86.28,46.39c8.01,4.26,16.19,8.81,24.24,12.75.58.32,1.09.56,1.52.71.37.13.68.2.91.21.13-.25.24-.6.32-1.04.09-.51.13-1.13.14-1.84,0-8.02.03-16.04.05-24.06,0-5.85,0-12.49-.05-19.79,0-.71-.05-1.33-.14-1.84-.08-.45-.18-.8-.32-1.05-.24,0-.54.08-.91.21-.43.15-.94.39-1.52.71-7.97,3.79-16.29,8.5-24.24,12.75v22.28ZM21.92,27.34c.57-1.73,1.42-3.37,2.5-4.87,1.09-1.53,2.43-2.92,3.95-4.13,2.1-1.67,4.56-3.02,7.26-3.93,2.61-.88,5.46-1.37,8.43-1.37s6.09.53,8.8,1.49c2.82,1,5.36,2.46,7.47,4.27,2.11,1.8,3.82,3.97,4.99,6.39,1.13,2.32,1.75,4.86,1.75,7.52,0,2.51-.56,4.92-1.57,7.14-1.05,2.3-2.59,4.39-4.51,6.17-1.74,1.62-3.81,2.99-6.12,4.04-1.92.88-4.01,1.53-6.2,1.91v8.86c0,2.25-1.16,3.74-2.64,4.43-.62.29-1.3.43-1.97.43s-1.35-.15-1.98-.44c-1.48-.69-2.64-2.21-2.64-4.54v-12.07h.12c.07-.34.17-.66.3-.97.28-.65.71-1.22,1.28-1.71.56-.49,1.19-.85,1.89-1.1.32-.11.64-.2.99-.27v-.07l1.21-.08c1.74-.12,3.4-.52,4.9-1.15,1.54-.64,2.93-1.53,4.09-2.61,1.15-1.07,2.07-2.32,2.7-3.69.6-1.32.93-2.77.93-4.28,0-1.6-.37-3.12-1.04-4.5-.7-1.43-1.72-2.73-3-3.82-2.49-2.13-5.94-3.45-9.74-3.45-1.79,0-3.5.29-5.06.81-1.62.55-3.1,1.35-4.35,2.35-.88.7-1.66,1.51-2.31,2.41-.63.87-1.14,1.83-1.49,2.83-.47,1.37-1.28,2.36-2.21,2.99-1.14.77-2.5,1.01-3.76.74l-.14-.03c-1.03-.25-2.01-.84-2.59-1.81-.54-.89-.73-2.09-.3-3.61l.08-.28ZM24.38,70.83h-8.49c-2.14,0-4.19-.43-6.06-1.21-1.95-.81-3.7-1.99-5.16-3.46s-2.65-3.22-3.46-5.16c-.78-1.87-1.21-3.92-1.21-6.06V15.89c0-2.14.43-4.19,1.21-6.06.81-1.95,1.99-3.7,3.46-5.16,1.46-1.46,3.22-2.65,5.16-3.46,1.87-.78,3.92-1.21,6.06-1.21h54.5c2.14,0,4.19.43,6.06,1.21,1.94.81,3.69,1.99,5.16,3.46,1.47,1.46,2.65,3.22,3.46,5.16.78,1.87,1.21,3.92,1.21,6.06v1.11l21.2-11.16c1-.55,1.95-.97,2.85-1.25.92-.29,1.8-.44,2.63-.44.59,0,1.16.07,1.69.2.55.14,1.06.35,1.53.63.48.28.91.63,1.29,1.04.38.4.71.86,1,1.38.41.74.72,1.62.92,2.62.2.97.3,2.07.31,3.29.08,14.44.04,26.29.02,34.58l-.02,9.32c0,1.22-.11,2.32-.31,3.29-.2,1.01-.51,1.88-.92,2.62-.28.51-.61.97-1,1.38-.38.41-.82.76-1.29,1.04-.47.28-.98.49-1.53.63-.53.14-1.1.2-1.69.2-.83,0-1.71-.15-2.63-.44-.9-.28-1.85-.7-2.85-1.25-6.96-3.82-14.12-7.49-21.2-11.18v1.44c0,2.14-.43,4.19-1.21,6.06-.81,1.94-1.99,3.7-3.46,5.16-1.47,1.46-3.22,2.65-5.16,3.46-1.87.78-3.92,1.21-6.06,1.21h-5.05c-1.87,0-3.09-.79-3.64-1.8-.23-.43-.35-.89-.35-1.36s.12-.92.35-1.35c.55-1.02,1.75-1.81,3.55-1.81h5.15c1.29,0,2.52-.26,3.65-.73,1.17-.48,2.22-1.2,3.11-2.09.89-.89,1.6-1.94,2.09-3.11.47-1.12.73-2.35.73-3.65V15.89c0-1.29-.26-2.52-.73-3.65-.48-1.17-1.2-2.22-2.09-3.11-.89-.89-1.94-1.6-3.11-2.09-1.12-.47-2.35-.73-3.65-.73H15.89c-1.29,0-2.52.26-3.65.73-1.17.48-2.22,1.2-3.11,2.09-.89.89-1.6,1.94-2.09,3.11-.47,1.12-.73,2.35-.73,3.65v39.05c0,1.29.26,2.52.73,3.65.48,1.17,1.2,2.22,2.09,3.11.88.89,1.94,1.6,3.11,2.09,1.12.47,2.36.73,3.65.73h8.59c1.77,0,2.95.8,3.49,1.81.23.42.34.88.34,1.34s-.11.92-.34,1.35c-.55,1.02-1.74,1.82-3.58,1.82ZM41.07,83.57v-10.4c0-.8.91-1.26,1.55-.78l8.59,5.2c.53.39.53,1.18,0,1.56l-8.59,5.2c-.64.48-1.55.02-1.55-.78h0Z"/></g></svg>